<?xml version="1.0" encoding="utf-8"?>
<!-- Generator: Adobe Illustrator 23.0.1, SVG Export Plug-In . SVG Version: 6.00 Build 0)  -->
<svg version="1.1" id="Layer_1" xmlns="http://www.w3.org/2000/svg" xmlns:xlink="http://www.w3.org/1999/xlink" x="0px" y="0px"
	 viewBox="0 0 700 1500" style="enable-background:new 0 0 700 1500;" xml:space="preserve">
<style type="text/css">
	.st0{fill:#46AFA5;fill-opacity:0.6;stroke:#D3D3D3;stroke-width:0.2;}
	.st1{fill:none;stroke:#000000;}
	.st2{fill:#569AD8;}
	.st3{fill:#2A3F5F;enable-background:new    ;}
	.st4{font-family:'Verdana';}
	.st5{font-size:10px;}
	.st6{fill:#54D382;}
	.st7{font-family:'HanmiunLeisjo-Regular';}
	.st8{font-size:12px;glyph-orientation-vertical:0;writing-mode:tb;}
	.st9{fill:none;}
</style>
<g>
	<g transform="translate(80, 60)">
		<g>
			<path class="st0" d="M40,808.9h16l428-207.5h16v0.1h-16L56,809L40,808.9L40,808.9z"/>
			<path class="st0" d="M40,16h16L484,0h16v23.2h-16l-428,16H40V16z"/>
			<path class="st0" d="M40,39.4h16l428,416.4h16v0.3h-16L56,39.7H40V39.4z"/>
			<path class="st0" d="M40,39.7h16l428,21.2h16v0.5h-16L56,40.2H40V39.7z"/>
			<path class="st0" d="M40,40.2h16l428,570.4h16v0.1h-16L56,40.3L40,40.2L40,40.2z"/>
			<path class="st0" d="M40,40.3h16L484,684h16v0.1h-16L56,40.4L40,40.3L40,40.3z"/>
			<path class="st0" d="M40,40.4h16l428,749.3h16v0.1h-16L56,40.5L40,40.4L40,40.4z"/>
			<path class="st0" d="M40,40.5h16l428,824h16v0.2h-16L56,40.7H40V40.5z"/>
			<path class="st0" d="M40,40.7h16l428,929.8h16v0.1h-16L56,40.8L40,40.7L40,40.7z"/>
			<path class="st0" d="M40,40.7h16l428,1060.2h16v0.3h-16L56,41H40V40.7z"/>
			<path class="st0" d="M40,41h16l428,1202.4h16v0.1h-16L56,41.1L40,41L40,41z"/>
			<path class="st0" d="M40,41.1h16l428,128.6h16v0.3h-16L56,41.4H40V41.1z"/>
			<path class="st0" d="M40,41.4h16l428,142.8h16v0.1h-16L56,41.5L40,41.4L40,41.4z"/>
			<path class="st0" d="M40,49.5h16l428-26.3h16v0.2h-16L56,49.7H40V49.5z"/>
			<path class="st0" d="M40,49.7h16L484,35h16v14.8h-16L56,64.5H40V49.7z"/>
			<path class="st0" d="M40,64.5h16l428,191.9h16v0.1h-16L56,64.6L40,64.5L40,64.5z"/>
			<path class="st0" d="M40,64.6h16l428,504.8h16v0.3h-16L56,64.9H40V64.6z"/>
			<path class="st0" d="M40,64.9h16l428,545.8h16v0.2h-16L56,65.1H40V64.9z"/>
			<path class="st0" d="M40,65.1h16l428,588.7h16v0.1h-16L56,65.2L40,65.1L40,65.1z"/>
			<path class="st0" d="M40,65.2h16l428,618.9h16v0.1h-16L56,65.3L40,65.2L40,65.2z"/>
			<path class="st0" d="M40,65.3h16l428,883.6h16v0.2h-16L56,65.5H40V65.3z"/>
			<path class="st0" d="M40,65.5h16L484,1270h16v0.1h-16L56,65.6L40,65.5L40,65.5z"/>
			<path class="st0" d="M40,65.6h16L484,1302h16v0.1h-16L56,65.7L40,65.6L40,65.6z"/>
			<path class="st0" d="M40,65.7h16l428,1261.8h16v0.1h-16L56,65.8L40,65.7L40,65.7z"/>
			<path class="st0" d="M40,65.7h16l428,87h16v0.1h-16l-428-87L40,65.7L40,65.7z"/>
			<path class="st0" d="M40,65.8h16L484,170h16v0.2h-16L56,66H40V65.8z"/>
			<path class="st0" d="M40,66h16l428,141.3h16v0.7h-16L56,66.7H40V66z"/>
			<path class="st0" d="M40,267.1h16L484,23.4h16v0.1h-16L56,267.2L40,267.1L40,267.1z"/>
			<path class="st0" d="M40,267.2h16l428-10.7h16v4.4h-16L56,271.7H40V267.2z"/>
			<path class="st0" d="M40,271.7h16L484,61.3h16v0.9h-16L56,272.6H40V271.7z"/>
			<path class="st0" d="M40,272.6h16l428,297.1h16v0.1h-16L56,272.7L40,272.6L40,272.6z"/>
			<path class="st0" d="M40,272.7h16l428,381.2h16v0.2h-16L56,272.9H40V272.7z"/>
			<path class="st0" d="M40,272.9h16l428,697.7h16v0.1h-16L56,273L40,272.9L40,272.9z"/>
			<path class="st0" d="M40,281h16L484,23.5h16v0.2h-16L56,281.2H40V281z"/>
			<path class="st0" d="M40,281.2h16l428-11.1h16v14.1h-16L56,295.3H40V281.2z"/>
			<path class="st0" d="M40,295.3h16l428,4h16v0.1h-16l-428-4L40,295.3L40,295.3z"/>
			<path class="st0" d="M40,295.4h16L484,364h16v0.1h-16L56,295.4H40L40,295.4z"/>
			<path class="st0" d="M40,295.4h16l428,388.8h16v0.6h-16L56,296H40V295.4z"/>
			<path class="st0" d="M40,296h16L484,79.2h16v0.4h-16L56,296.4H40V296z"/>
			<path class="st0" d="M40,296.4h16l428,710.1h16v0.1h-16L56,296.5L40,296.4L40,296.4z"/>
			<path class="st0" d="M40,304.5h16L484,49.8h16V50h-16L56,304.7H40V304.5z"/>
			<path class="st0" d="M40,304.7h16l428-5.3h16v34.2h-16l-428,5.3H40V304.7z"/>
			<path class="st0" d="M40,338.9h16l428,196.6h16v0.1h-16L56,339L40,338.9L40,338.9z"/>
			<path class="st0" d="M40,339h16l428,230.9h16v0.1h-16L56,339.1L40,339L40,339z"/>
			<path class="st0" d="M40,339.1h16l428,368.8h16v0.3h-16L56,339.4H40V339.1z"/>
			<path class="st0" d="M40,339.3h16l428,407.1h16v0.1h-16L56,339.4L40,339.3L40,339.3z"/>
			<path class="st0" d="M40,339.4h16l428,667.1h16v0.1h-16L56,339.5L40,339.4L40,339.4z"/>
			<path class="st0" d="M40,339.5h16l428-237.6h16v0.6h-16L56,340.1H40V339.5z"/>
			<path class="st0" d="M40,340.1h16l428,713.4h16v0.1h-16L56,340.2L40,340.1L40,340.1z"/>
			<path class="st0" d="M40,340.2h16l428,929.9h16v0.1h-16L56,340.3L40,340.2L40,340.2z"/>
			<path class="st0" d="M40,340.3h16l428-203.8h16v0.1h-16L56,340.4L40,340.3L40,340.3z"/>
			<path class="st0" d="M40,348.4h16L484,50h16v0.2h-16L56,348.5H40V348.4z"/>
			<path class="st0" d="M40,348.6h16l428-4.8h16v11h-16l-428,4.8H40V348.6z"/>
			<path class="st0" d="M40,359.5h16L484,484h16v0.1h-16L56,359.6L40,359.5L40,359.5z"/>
			<path class="st0" d="M40,359.6h16l428,386.9h16v0.5h-16L56,360.1H40V359.6z"/>
			<path class="st0" d="M40,360.1h16l428,589h16v0.1h-16l-428-589L40,360.1L40,360.1z"/>
			<path class="st0" d="M40,360.2h16l428,830.1h16v0.1h-16L56,360.3L40,360.2L40,360.2z"/>
			<path class="st0" d="M40,360.3h16l428-223.7h16v2.4h-16L56,362.7H40V360.3z"/>
			<path class="st0" d="M40,362.6h16l428,954.5h16v0.1h-16L56,362.7L40,362.6L40,362.6z"/>
			<path class="st0" d="M40,362.7h16l428,980.9h16v0.1h-16L56,362.8L40,362.7L40,362.7z"/>
			<path class="st0" d="M40,370.8h16L484,23.7h16v0.1h-16L56,370.9L40,370.8L40,370.8z"/>
			<path class="st0" d="M40,370.9h16l428-86.8h16v0.1h-16L56,371L40,370.9L40,370.9z"/>
			<path class="st0" d="M40,371h16l428-6.9h16v5.2h-16l-428,6.9H40V371z"/>
			<path class="st0" d="M40,376.2h16l428-223.4h16v0.5h-16L56,376.7H40V376.2z"/>
			<path class="st0" d="M40,384.7h16L484,23.8h16v0.1h-16L56,384.8L40,384.7L40,384.7z"/>
			<path class="st0" d="M40,384.8h16L484,50.2h16v0.1h-16L56,384.9L40,384.8L40,384.8z"/>
			<path class="st0" d="M40,384.9h16l428-4.9h16v12.6h-16l-428,4.9H40V384.9z"/>
			<path class="st0" d="M40,397.4h16l428,6.5h16v0.1h-16l-428-6.5L40,397.4L40,397.4z"/>
			<path class="st0" d="M40,397.5h16l428,58.6h16v0.2h-16L56,397.7H40V397.5z"/>
			<path class="st0" d="M40,397.7h16l428,75.1h16v0.1h-16L56,397.8L40,397.7L40,397.7z"/>
			<path class="st0" d="M40,397.8h16L484,62.3h16v0.1h-16L56,397.9L40,397.8L40,397.8z"/>
			<path class="st0" d="M40,397.9h16l428,160.2h16v0.2h-16L56,398.1H40V397.9z"/>
			<path class="st0" d="M40,398.1h16l428,171.8h16v0.1h-16L56,398.2L40,398.1L40,398.1z"/>
			<path class="st0" d="M40,398.2h16l428,212.7h16v0.1h-16L56,398.3L40,398.2L40,398.2z"/>
			<path class="st0" d="M40,398.3h16l428,255.8h16v0.3h-16L56,398.6H40V398.3z"/>
			<path class="st0" d="M40,398.6h16l428,407.8h16v0.8h-16L56,399.4H40V398.6z"/>
			<path class="st0" d="M40,399.3h16l428,465.3h16v0.1h-16L56,399.4L40,399.3L40,399.3z"/>
			<path class="st0" d="M40,399.4h16l428,549.7h16v0.1h-16L56,399.5L40,399.4L40,399.4z"/>
			<path class="st0" d="M40,399.5h16l428,644.8h16v0.1h-16L56,399.6L40,399.5L40,399.5z"/>
			<path class="st0" d="M40,399.6h16l428,654h16v0.1h-16l-428-654L40,399.6L40,399.6z"/>
			<path class="st0" d="M40,399.7h16l428,742.4h16v0.2h-16L56,399.9H40V399.7z"/>
			<path class="st0" d="M40,399.9h16l428,870.3h16v0.1h-16L56,400L40,399.9L40,399.9z"/>
			<path class="st0" d="M40,400h16l428,902.1h16v0.2h-16L56,400.2H40V400z"/>
			<path class="st0" d="M40,400.2h16l428-230h16v0.3h-16l-428,230H40V400.2z"/>
			<path class="st0" d="M40,400.5h16L484,208h16v0.1h-16L56,400.6L40,400.5L40,400.5z"/>
			<path class="st0" d="M40,408.6h16l428-16.1h16v0.1h-16l-428,16H40L40,408.6z"/>
			<path class="st0" d="M40,408.6h16l428-4.7h16v41.8h-16l-428,4.7H40V408.6z"/>
			<path class="st0" d="M40,450.5h16l428,46.8h16v0.5h-16L56,451H40V450.5z"/>
			<path class="st0" d="M40,451h16l428,160h16v0.1h-16l-428-160L40,451L40,451z"/>
			<path class="st0" d="M40,451.1h16l428,203.3h16v0.1h-16L56,451.2L40,451.1L40,451.1z"/>
			<path class="st0" d="M40,451.1h16L484,79.5h16v0.1h-16L56,451.2L40,451.1L40,451.1z"/>
			<path class="st0" d="M40,451.2h16l428,377h16v0.6h-16l-428-377H40V451.2z"/>
			<path class="st0" d="M40,451.8h16l428,601.8h16v0.8h-16L56,452.6H40V451.8z"/>
			<path class="st0" d="M40,452.6h16l428,670.8h16v0.2h-16L56,452.8H40V452.6z"/>
			<path class="st0" d="M40,452.8h16l428,689.5h16v0.4h-16L56,453.1H40V452.8z"/>
			<path class="st0" d="M40,453.1h16l428,737.2h16v0.1h-16L56,453.2L40,453.1L40,453.1z"/>
			<path class="st0" d="M40,453.2h16l428,790.3h16v0.2h-16L56,453.4H40V453.2z"/>
			<path class="st0" d="M40,453.4h16l428-269.1h16v1h-16L56,454.5H40V453.4z"/>
			<path class="st0" d="M40,454.5h16l428-246.4h16v0.1h-16L56,454.5H40L40,454.5z"/>
			<path class="st0" d="M40,462.5h16L484,23.9h16v0.2h-16L56,462.7H40V462.5z"/>
			<path class="st0" d="M40,462.7h16l428-6.5h16v7.5h-16l-428,6.5H40V462.7z"/>
			<path class="st0" d="M40,470.2h16l428,27.6h16v0.1h-16L56,470.3L40,470.2L40,470.2z"/>
			<path class="st0" d="M40,470.3h16L484,570h16v0.2h-16L56,470.5H40V470.3z"/>
			<path class="st0" d="M40,470.5h16l428,140.6h16v0.2h-16L56,470.7H40V470.5z"/>
			<path class="st0" d="M40,478.7h16l428-5.8h16v1h-16l-428,5.8H40V478.7z"/>
			<path class="st0" d="M40,479.7h16L484,62.4h16v0.1h-16L56,479.8L40,479.7L40,479.7z"/>
			<path class="st0" d="M40,479.8h16l428,174.7h16v0.5h-16L56,480.3H40V479.8z"/>
			<path class="st0" d="M40,488.3h16l428-133.5h16v0.1h-16L56,488.4L40,488.3L40,488.3z"/>
			<path class="st0" d="M40,488.4h16l428-95.8h16v0.1h-16L56,488.5L40,488.4L40,488.4z"/>
			<path class="st0" d="M40,488.5h16l428-4.4h16v3.4h-16l-428,4.4H40V488.5z"/>
			<path class="st0" d="M40,491.9h16L484,747h16v0.7h-16L56,492.5H40V491.9z"/>
			<path class="st0" d="M40,492.5h16L484,139h16v0.1h-16L56,492.6L40,492.5L40,492.5z"/>
			<path class="st0" d="M40,74.7h16l428-50.6h16v0.4h-16L56,75.1H40V74.7z"/>
			<path class="st0" d="M40,75.1h16L484,261h16v0.3h-16L56,75.4H40V75.1z"/>
			<path class="st0" d="M40,75.4h16L484,474h16v0.2h-16L56,75.5L40,75.4L40,75.4z"/>
			<path class="st0" d="M40,75.5h16l428-13.1h16v7.4h-16L56,82.9H40V75.5z"/>
			<path class="st0" d="M40,82.9h16L484,655h16v0.2h-16L56,83.1H40V82.9z"/>
			<path class="st0" d="M40,83.1h16l428,887.6h16v0.4h-16L56,83.5H40V83.1z"/>
			<path class="st0" d="M40,83.5h16l428,19h16v0.2h-16l-428-19H40V83.5z"/>
			<path class="st0" d="M40,83.7h16l428,69.6h16v0.1h-16L56,83.8L40,83.7L40,83.7z"/>
			<path class="st0" d="M40,500.6h16L484,50.3h16v0.1h-16L56,500.7L40,500.6L40,500.6z"/>
			<path class="st0" d="M40,500.7h16l428-54.9h16v0.1h-16L56,500.8L40,500.7L40,500.7z"/>
			<path class="st0" d="M40,500.8h16l428-3h16V508h-16l-428,3H40V500.8z"/>
			<path class="st0" d="M40,511h16l428,438.2h16v0.1h-16L56,511.1L40,511L40,511z"/>
			<path class="st0" d="M40,511.1h16l428,612.5h16v0.1h-16L56,511.2L40,511.1L40,511.1z"/>
			<path class="st0" d="M40,511.2h16l428,759.1h16v0.3h-16L56,511.5H40V511.2z"/>
			<path class="st0" d="M40,511.5h16l428-303.3h16v0.1h-16L56,511.6L40,511.5L40,511.5z"/>
			<path class="st0" d="M40,519.6h16l428-186h16v0.6h-16l-428,186H40V519.6z"/>
			<path class="st0" d="M40,520.1h16l428-127.5h16v0.1h-16L56,520.2L40,520.1L40,520.1z"/>
			<path class="st0" d="M40,520.2h16l428,15.4h16v13.8h-16L56,534H40V520.2z"/>
			<path class="st0" d="M40,534h16l428,330.7h16v0.1h-16L56,534.1L40,534L40,534z"/>
			<path class="st0" d="M40,534.1h16l428-431.5h16v0.2h-16L56,534.3H40V534.1z"/>
			<path class="st0" d="M40,534.3h16l428,608.3h16v0.2h-16L56,534.5H40V534.3z"/>
			<path class="st0" d="M40,534.5h16l428,656h16v0.1h-16l-428-656L40,534.5L40,534.5z"/>
			<path class="st0" d="M40,534.6h16l428,736h16v0.5h-16l-428-736H40V534.6z"/>
			<path class="st0" d="M40,543.1h16l428-281.8h16v0.1h-16L56,543.2L40,543.1L40,543.1z"/>
			<path class="st0" d="M40,543.2h16l428-150.4h16v0.5h-16L56,543.7H40V543.2z"/>
			<path class="st0" d="M40,543.6h16L484,69.8h16v0.1h-16L56,543.7L40,543.6L40,543.6z"/>
			<path class="st0" d="M40,543.7h16l428,14.6h16v2.8h-16L56,546.5H40V543.7z"/>
			<path class="st0" d="M40,546.6h16l428,282.2h16v0.1h-16L56,546.7L40,546.6L40,546.6z"/>
			<path class="st0" d="M40,546.7h16l428,755.6h16v0.3h-16L56,546.9H40V546.7z"/>
			<path class="st0" d="M40,546.9h16l428,804.8h16v0.1h-16L56,547L40,546.9L40,546.9z"/>
			<path class="st0" d="M40,555h16L484,24.5h16v0.1h-16L56,555.1L40,555L40,555z"/>
			<path class="st0" d="M40,555.1h16L484,50.4h16V51h-16L56,555.7H40V555.1z"/>
			<path class="st0" d="M40,555.7h16l428-294.4h16v0.1h-16L56,555.8L40,555.7L40,555.7z"/>
			<path class="st0" d="M40,555.8h16l428-221.7h16v0.1h-16L56,555.9L40,555.8L40,555.8z"/>
			<path class="st0" d="M40,555.9h16l428-162.6h16v0.3h-16L56,556.2H40V555.9z"/>
			<path class="st0" d="M40,556.2h16l428-110.3h16v0.1h-16L56,556.3L40,556.2L40,556.2z"/>
			<path class="st0" d="M40,556.3h16l428-92.5h16v0.4h-16L56,556.6H40V556.3z"/>
			<path class="st0" d="M40,556.6h16l428-69.2h16v0.1h-16L56,556.7L40,556.6L40,556.6z"/>
			<path class="st0" d="M40,556.7h16L484,508h16v0.4h-16L56,557.1H40V556.7z"/>
			<path class="st0" d="M40,557.1h16l428,13.1h16v30.6h-16L56,587.7H40V557.1z"/>
			<path class="st0" d="M40,587.7h16l428,23.5h16v33.3h-16L56,621.1H40V587.7z"/>
			<path class="st0" d="M40,621.1h16l428,34.1h16v0.1h-16L56,621.1H40L40,621.1z"/>
			<path class="st0" d="M40,621.1h16l428,87h16v0.1h-16l-428-87L40,621.1L40,621.1z"/>
			<path class="st0" d="M40,621.2h16l428,168.5h16v0.1h-16L56,621.3L40,621.2L40,621.2z"/>
			<path class="st0" d="M40,621.3h16l428,185.8h16v0.5h-16L56,621.8H40V621.3z"/>
			<path class="st0" d="M40,621.8h16l428,243h16v0.4h-16l-428-243H40V621.8z"/>
			<path class="st0" d="M40,622.2h16l428,327.1h16v0.5h-16L56,622.7H40V622.2z"/>
			<path class="st0" d="M40,622.7h16l428,478.6h16v0.1h-16L56,622.8L40,622.7L40,622.7z"/>
			<path class="st0" d="M40,622.8h16l428,500.9h16v0.1h-16l-428-501H40L40,622.8z"/>
			<path class="st0" d="M40,622.8h16l428,620.8h16v0.1h-16L56,622.9L40,622.8L40,622.8z"/>
			<path class="st0" d="M40,622.9h16l428-414.7h16v1.6h-16L56,624.5H40V622.9z"/>
			<path class="st0" d="M40,632.5h16l428-371.1h16v0.3h-16L56,632.8H40V632.5z"/>
			<path class="st0" d="M40,632.8h16l428-263.6h16v0.1h-16L56,632.9L40,632.8L40,632.8z"/>
			<path class="st0" d="M40,632.9h16l428-239.4h16v0.3h-16L56,633.2H40V632.9z"/>
			<path class="st0" d="M40,633.2h16l428-169.1h16v0.4h-16L56,633.6H40V633.2z"/>
			<path class="st0" d="M40,633.6h16l428-159.5h16v1.9h-16L56,635.5H40V633.6z"/>
			<path class="st0" d="M40,635.5h16L484,69.9h16v0.5h-16L56,635.9H40V635.5z"/>
			<path class="st0" d="M40,635.9h16l428-35.1h16v0.3h-16L56,636.2H40V635.9z"/>
			<path class="st0" d="M40,636.2h16l428,8.4h16v0.2h-16l-428-8.4H40V636.2z"/>
			<path class="st0" d="M40,636.4h16l428,18.8h16V675h-16L56,656.2H40V636.4z"/>
			<path class="st0" d="M40,656.2h16l428,263.6h16v0.1h-16L56,656.3L40,656.2L40,656.2z"/>
			<path class="st0" d="M40,656.3h16L484,971h16v0.2h-16L56,656.4H40V656.3z"/>
			<path class="st0" d="M40,656.4h16l428-503h16v0.3h-16l-428,503H40V656.4z"/>
			<path class="st0" d="M40,664.7h16l428-380.5h16v0.5h-16L56,665.2H40V664.7z"/>
			<path class="st0" d="M40,665.2h16l428,19.6h16v13.8h-16L56,679H40V665.2z"/>
			<path class="st0" d="M40,679h16l428,29.3h16v0.3h-16L56,679.3H40V679z"/>
			<path class="st0" d="M40,679.3h16l428,110.5h16v0.4h-16L56,679.7H40V679.3z"/>
			<path class="st0" d="M40,679.7h16l428-600h16v0.1h-16l-428,600L40,679.7L40,679.7z"/>
			<path class="st0" d="M40,687.7h16l428-353.5h16v0.2h-16L56,687.9H40V687.7z"/>
			<path class="st0" d="M40,687.9h16l428-86.8h16v0.1h-16L56,688L40,687.9L40,687.9z"/>
			<path class="st0" d="M40,688h16l428,10.5h16v0.5h-16L56,688.5H40V688z"/>
			<path class="st0" d="M40,688.5h16l428,20.1h16v28.6h-16L56,717.1H40V688.5z"/>
			<path class="st0" d="M40,717.1h16l428,30.5h16v0.1h-16L56,717.2L40,717.1L40,717.1z"/>
			<path class="st0" d="M40,717.2h16l428-614.4h16v0.1h-16L56,717.3L40,717.2L40,717.2z"/>
			<path class="st0" d="M40,717.3h16L484,1271h16v0.2h-16L56,717.5H40V717.3z"/>
			<path class="st0" d="M40,717.5h16l428-507.6h16v0.1h-16L56,717.6L40,717.5L40,717.5z"/>
			<path class="st0" d="M40,725.6h16L484,51h16v0.1h-16L56,725.7L40,725.6L40,725.6z"/>
			<path class="st0" d="M40,725.7h16l428-391.3h16v0.3h-16L56,726H40V725.7z"/>
			<path class="st0" d="M40,726h16l428-371.1h16v0.4h-16l-428,371H40V726z"/>
			<path class="st0" d="M40,726.3h16l428-332.5h16v0.1h-16L56,726.4L40,726.3L40,726.3z"/>
			<path class="st0" d="M40,726.4h16l428-238.9h16v1.7h-16L56,728.1H40V726.4z"/>
			<path class="st0" d="M40,728.1h16L484,70.4h16v0.1h-16L56,728.2L40,728.1L40,728.1z"/>
			<path class="st0" d="M40,728.2h16l428-127.1h16v0.2h-16L56,728.4H40V728.2z"/>
			<path class="st0" d="M40,728.4h16l428-83.6h16v0.1h-16L56,728.5L40,728.4L40,728.4z"/>
			<path class="st0" d="M40,728.5h16L484,699h16v0.2h-16L56,728.7H40V728.5z"/>
			<path class="st0" d="M40,728.7h16l428,8.5h16v0.2h-16l-428-8.5H40V728.7z"/>
			<path class="st0" d="M40,728.9h16l428,18.8h16v33.4h-16L56,762.3H40V728.9z"/>
			<path class="st0" d="M40,762.3h16l428,244.3h16v0.1h-16L56,762.4L40,762.3L40,762.3z"/>
			<path class="st0" d="M40,762.4h16l428-659.5h16v0.1h-16L56,762.5L40,762.4L40,762.4z"/>
			<path class="st0" d="M40,762.5h16l428,428h16v0.2h-16l-428-428H40V762.5z"/>
			<path class="st0" d="M40,762.7h16l428,508.5h16v0.1h-16L56,762.8L40,762.7L40,762.7z"/>
			<path class="st0" d="M40,762.8h16l428-623.7h16v0.3h-16L56,763.1H40V762.8z"/>
			<path class="st0" d="M40,763.1h16l428-577.7h16v0.1h-16L56,763.2L40,763.1L40,763.1z"/>
			<path class="st0" d="M40,763.2h16L484,210h16v0.1h-16L56,763.3L40,763.2L40,763.2z"/>
			<path class="st0" d="M40,771.3h16l428-401.9h16v0.1h-16L56,771.4L40,771.3L40,771.3z"/>
			<path class="st0" d="M40,771.4h16l428-72.1h16v0.4h-16l-428,72H40V771.4z"/>
			<path class="st0" d="M40,771.7h16l428,18.4h16v7.4h-16L56,779.1H40V771.7z"/>
			<path class="st0" d="M40,779.1h16l428,28.5h16v0.8h-16L56,779.9H40V779.1z"/>
			<path class="st0" d="M40,779.9h16l428-626.2h16v0.5h-16L56,780.4H40V779.9z"/>
			<path class="st0" d="M40,788.3h16L484,51.1h16v0.1h-16L56,788.5L40,788.3L40,788.3z"/>
			<path class="st0" d="M40,788.4h16l428-394.5h16v0.1h-16L56,788.5L40,788.4L40,788.4z"/>
			<path class="st0" d="M40,788.5h16l428-324h16v0.1h-16l-428,324L40,788.5L40,788.5z"/>
			<path class="st0" d="M40,788.6h16L484,675h16v0.1h-16L56,788.7L40,788.6L40,788.6z"/>
			<path class="st0" d="M40,788.7h16l428,8.8h16v0.5h-16l-428-8.8H40V788.7z"/>
			<path class="st0" d="M40,789.2h16l428,19.2h16v11.2h-16L56,800.4H40V789.2z"/>
			<path class="st0" d="M40,800.4h16l428,244h16v0.1h-16l-428-244L40,800.4L40,800.4z"/>
			<path class="st0" d="M40,800.5h16l428-630.1h16v0.2h-16L56,800.7H40V800.5z"/>
			<path class="st0" d="M40,800.7h16l428-590.6h16v0.1h-16L56,800.8L40,800.7L40,800.7z"/>
			<path class="st0" d="M40,91.8h16l428,193h16v0.8h-16L56,92.5H40V91.8z"/>
			<path class="st0" d="M40,92.5h16l428,607.1h16v0.2h-16L56,92.7H40V92.5z"/>
			<path class="st0" d="M40,92.7h16l428,644.7h16v0.1h-16L56,92.8L40,92.7L40,92.7z"/>
			<path class="st0" d="M40,92.8h16l428-13.1h16v12.9h-16L56,105.7H40V92.8z"/>
			<path class="st0" d="M40,105.7h16l428,844.1h16v0.1h-16L56,105.8L40,105.7L40,105.7z"/>
			<path class="st0" d="M40,105.8h16l428-2.8h16v0.1h-16l-428,2.8L40,105.8L40,105.8z"/>
			<path class="st0" d="M40,808.8h16l428-300.4h16v0.1h-16L56,808.9L40,808.8L40,808.8z"/>
			<path class="st0" d="M40,39.2h16l428-4.4h16V35h-16L56,39.4H40V39.2z"/>
			<path class="st0" d="M40,809h16l428-133.9h16v0.1h-16L56,809.1L40,809L40,809z"/>
			<path class="st0" d="M40,809.1h16l428,19.8h16v26.4h-16L56,835.5H40V809.1z"/>
			<path class="st0" d="M40,835.5h16l428,60.6h16v0.1h-16L56,835.6L40,835.5L40,835.5z"/>
			<path class="st0" d="M40,835.6h16l428,69.5h16v0.1h-16L56,835.7L40,835.6L40,835.6z"/>
			<path class="st0" d="M40,835.7h16l428,114.2h16v0.1h-16L56,835.8L40,835.7L40,835.7z"/>
			<path class="st0" d="M40,835.8h16l428,135.4h16v0.1h-16L56,835.9L40,835.8L40,835.8z"/>
			<path class="st0" d="M40,835.9h16l428,218.5h16v0.1h-16L56,836L40,835.9L40,835.9z"/>
			<path class="st0" d="M40,836h16l428,265.3h16v0.1h-16L56,836.1L40,836L40,836z"/>
			<path class="st0" d="M40,836.1h16l428,523.7h16v0.2h-16L56,836.3H40V836.1z"/>
			<path class="st0" d="M40,836.3h16l428-650.8h16v0.2h-16L56,836.5H40V836.3z"/>
			<path class="st0" d="M40,844.5h16L484,24.6h16v1.2h-16L56,845.7H40V844.5z"/>
			<path class="st0" d="M40,845.7h16L484,51.2h16v0.1h-16L56,845.8L40,845.7L40,845.7z"/>
			<path class="st0" d="M40,845.8h16l428-584.1h16v0.1h-16L56,845.9L40,845.8L40,845.8z"/>
			<path class="st0" d="M40,845.9h16L484,446h16v0.1h-16L56,846L40,845.9L40,845.9z"/>
			<path class="st0" d="M40,846h16l428-381.4h16v0.1h-16L56,846.1L40,846L40,846z"/>
			<path class="st0" d="M40,846.1h16l428-337.6h16v0.2h-16L56,846.3H40V846.1z"/>
			<path class="st0" d="M40,846.3h16l428-171.1h16v0.1h-16L56,846.4L40,846.3L40,846.3z"/>
			<path class="st0" d="M40,846.4h16l428,18.8h16v21.9h-16L56,868.3H40V846.4z"/>
			<path class="st0" d="M40,868.3h16l428,28h16v0.2h-16l-428-28H40V868.3z"/>
			<path class="st0" d="M40,868.5h16l428,186h16v0.1h-16l-428-186L40,868.5L40,868.5z"/>
			<path class="st0" d="M40,868.6h16l428,232.8h16v0.1h-16L56,868.7L40,868.6L40,868.6z"/>
			<path class="st0" d="M40,868.7h16l428-658.5h16v0.3h-16L56,869H40V868.7z"/>
			<path class="st0" d="M40,876.9h16l428-368.2h16v0.2h-16L56,877.1H40V876.9z"/>
			<path class="st0" d="M40,877.1h16l428,19.3h16v0.6h-16L56,877.7H40V877.1z"/>
			<path class="st0" d="M40,877.7h16l428,424.9h16v0.1h-16L56,877.8L40,877.7L40,877.7z"/>
			<path class="st0" d="M40,885.8h16l428-439.7h16v0.2h-16L56,886H40V885.8z"/>
			<path class="st0" d="M40,886h16l428-421.3h16v0.1h-16L56,886.1L40,886L40,886z"/>
			<path class="st0" d="M40,886.1h16l428-210.8h16v0.1h-16L56,886.2L40,886.1L40,886.1z"/>
			<path class="st0" d="M40,886.2h16l428-30.9h16v0.5h-16L56,886.6H40V886.2z"/>
			<path class="st0" d="M40,886.6h16l428,18.5h16v6.3h-16L56,892.9H40V886.6z"/>
			<path class="st0" d="M40,893h16l428,26.9h16v0.1h-16L56,893.1L40,893L40,893z"/>
			<path class="st0" d="M40,893.1h16l428,350.7h16v0.1h-16L56,893.2L40,893.1L40,893.1z"/>
			<path class="st0" d="M40,901.2h16l428-392.3h16v0.1h-16L56,901.3L40,901.2L40,901.2z"/>
			<path class="st0" d="M40,901.3h16l428-120.1h16v0.1h-16L56,901.4L40,901.3L40,901.3z"/>
			<path class="st0" d="M40,901.4h16L484,920h16v19.9h-16L56,921.3H40V901.4z"/>
			<path class="st0" d="M40,921.3h16l428,85.5h16v0.3h-16L56,921.6H40V921.3z"/>
			<path class="st0" d="M40,921.6h16l428,269.2h16v0.2h-16L56,921.8H40V921.6z"/>
			<path class="st0" d="M40,929.8h16L484,51.3h16v0.6h-16L56,930.3H40V929.8z"/>
			<path class="st0" d="M40,930.3h16l428-560.9h16v0.2h-16L56,930.5H40V930.3z"/>
			<path class="st0" d="M40,930.5h16L484,394h16v0.1h-16L56,930.6L40,930.5L40,930.5z"/>
			<path class="st0" d="M40,930.6h16L484,509h16v0.2h-16L56,930.8H40V930.6z"/>
			<path class="st0" d="M40,930.8h16l428-285.9h16v0.1h-16L56,930.9L40,930.8L40,930.8z"/>
			<path class="st0" d="M40,930.9h16L484,950h16v12.5h-16L56,943.4H40V930.9z"/>
			<path class="st0" d="M40,943.4h16l428,101.2h16v0.1h-16L56,943.5L40,943.4L40,943.4z"/>
			<path class="st0" d="M40,943.4h16l428-789.3h16v0.1h-16L56,943.5L40,943.4L40,943.4z"/>
			<path class="st0" d="M40,943.5h16l428-733.1h16v0.3h-16L56,943.8H40V943.5z"/>
			<path class="st0" d="M40,951.8h16l428-926h16v0.3h-16l-428,926H40V951.8z"/>
			<path class="st0" d="M40,952.1h16L484,51.8h16v0.1h-16L56,952.2L40,952.1L40,952.1z"/>
			<path class="st0" d="M40,952.2h16l428-690.4h16v0.1h-16L56,952.3L40,952.2L40,952.2z"/>
			<path class="st0" d="M40,952.3h16L484,70.5h16v0.4h-16L56,952.7H40V952.3z"/>
			<path class="st0" d="M40,952.7h16l428-277.3h16v0.1h-16L56,952.8L40,952.7L40,952.7z"/>
			<path class="st0" d="M40,952.8h16l428-97h16v0.1h-16l-428,97L40,952.8L40,952.8z"/>
			<path class="st0" d="M40,952.9h16l428-65.8h16v0.4h-16L56,953.2H40V952.9z"/>
			<path class="st0" d="M40,953.2h16l428-41.7h16v0.1h-16L56,953.3L40,953.2L40,953.2z"/>
			<path class="st0" d="M40,953.3h16l428,18h16v12.8h-16l-428-18H40V953.3z"/>
			<path class="st0" d="M40,966.2h16l428,40.9h16v0.1h-16L56,966.3L40,966.2L40,966.2z"/>
			<path class="st0" d="M40,966.3h16l428,88.3h16v0.2h-16L56,966.5H40V966.3z"/>
			<path class="st0" d="M40,966.5h16l428,176.4h16v0.3h-16L56,966.7H40V966.5z"/>
			<path class="st0" d="M40,966.7h16l428,335.9h16v0.1h-16L56,966.8L40,966.7L40,966.7z"/>
			<path class="st0" d="M40,966.8h16l428-781.2h16v0.1h-16L56,966.9L40,966.8L40,966.8z"/>
			<path class="st0" d="M40,974.9h16l428-689.4h16v5.7h-16L56,980.6H40V974.9z"/>
			<path class="st0" d="M40,980.6h16l428-645.9h16v0.1h-16L56,980.7L40,980.6L40,980.6z"/>
			<path class="st0" d="M40,980.7h16l428-611h16v0.1h-16l-428,611L40,980.7L40,980.7z"/>
			<path class="st0" d="M40,980.8h16L484,92.7h16v0.7h-16L56,981.5H40V980.8z"/>
			<path class="st0" d="M40,981.5h16l428-161.8h16v0.1h-16L56,981.6L40,981.5L40,981.5z"/>
			<path class="st0" d="M40,981.5h16l428-878.4h16v0.1h-16L56,981.6L40,981.5L40,981.5z"/>
			<path class="st0" d="M40,981.6h16l428,209.3h16v0.1h-16L56,981.7L40,981.6L40,981.6z"/>
			<path class="st0" d="M40,989.7h16l428-698.6h16v0.1h-16L56,989.8L40,989.7L40,989.7z"/>
			<path class="st0" d="M40,989.8h16l428-252.4h16v0.2h-16L56,990H40V989.8z"/>
			<path class="st0" d="M40,990h16l428,3.5h16v4.6h-16l-428-3.5H40V990z"/>
			<path class="st0" d="M40,994.6h16l428,12.5h16v0.1h-16L56,994.7L40,994.6L40,994.6z"/>
			<path class="st0" d="M40,994.7h16l428,177.4h16v0.1h-16L56,994.8L40,994.7L40,994.7z"/>
			<path class="st0" d="M40,1002.8h16l428-668.1h16v0.1h-16L56,1002.9L40,1002.8L40,1002.8z"/>
			<path class="st0" d="M40,1002.9h16l428-647.7h16v0.2h-16L56,1003.1H40V1002.9z"/>
			<path class="st0" d="M40,1003.1h16l428-63.2h16v0.9h-16L56,1004H40V1003.1z"/>
			<path class="st0" d="M40,1004h16l428-5.9h16v0.1h-16l-428,5.9L40,1004L40,1004z"/>
			<path class="st0" d="M40,1004.1h16l428,3.2h16v28h-16L56,1032H40V1004.1z"/>
			<path class="st0" d="M40,1032h16l428,22.8h16v0.2h-16l-428-22.8H40V1032z"/>
			<path class="st0" d="M40,1032.2h16L484,1191h16v0.4h-16L56,1032.6H40V1032.2z"/>
			<path class="st0" d="M40,1032.6h16l428-893.2h16v0.4h-16L56,1033H40V1032.6z"/>
			<path class="st0" d="M40,1033h16l428-847.2h16v0.1h-16L56,1033.1L40,1033L40,1033z"/>
			<path class="st0" d="M40,1033.1h16l428-822.3h16v0.1h-16L56,1033.2L40,1033.1L40,1033.1z"/>
			<path class="st0" d="M40,113.9h16l428,148h16v0.1h-16L56,114L40,113.9L40,113.9z"/>
			<path class="st0" d="M40,114h16l428,220.8h16v0.3h-16L56,114.3H40V114z"/>
			<path class="st0" d="M40,114.3h16l428,623.3h16v0.6h-16L56,114.9H40V114.3z"/>
			<path class="st0" d="M40,114.9h16l428-21.5h16V94h-16L56,115.4H40V114.9z"/>
			<path class="st0" d="M40,115.4h16l428-12.2h16v24.4h-16L56,139.8H40V115.4z"/>
			<path class="st0" d="M40,139.8h16l428,1032.5h16v0.3h-16L56,140.1H40V139.8z"/>
			<path class="st0" d="M40,140.1h16l428,1051.3h16v0.1h-16L56,140.2L40,140.1L40,140.1z"/>
			<path class="st0" d="M40,140.2h16l428,1131.1h16v0.3h-16L56,140.5H40V140.2z"/>
			<path class="st0" d="M40,140.5h16l428,30.2h16v0.2h-16L56,140.7H40V140.5z"/>
			<path class="st0" d="M40,1041.2h16L484,26.1h16v0.1h-16L56,1041.3L40,1041.2L40,1041.2z"/>
			<path class="st0" d="M40,1041.3h16l428-671.5h16v0.9h-16L56,1042.1H40V1041.3z"/>
			<path class="st0" d="M40,1042.1h16l428-887.8h16v0.4h-16L56,1042.5H40V1042.1z"/>
			<path class="st0" d="M40,1050.5h16l428-5.9h16v0.9h-16l-428,5.9H40V1050.5z"/>
			<path class="st0" d="M40,1059.3h16L484,262h16v0.1h-16L56,1059.4L40,1059.3L40,1059.3z"/>
			<path class="st0" d="M40,1059.4h16l428-724.3h16v0.1h-16L56,1059.5L40,1059.4L40,1059.4z"/>
			<path class="st0" d="M40,1059.5h16l428-613.2h16v0.1h-16L56,1059.6L40,1059.5L40,1059.5z"/>
			<path class="st0" d="M40,1059.6h16l428-203.7h16v0.3h-16L56,1059.9H40V1059.6z"/>
			<path class="st0" d="M40,1059.9h16l428-172.4h16v0.3h-16L56,1060.2H40V1059.9z"/>
			<path class="st0" d="M40,1060.2h16l428-76h16v0.1h-16l-428,76L40,1060.2L40,1060.2z"/>
			<path class="st0" d="M40,1060.3h16l428-5.3h16v35.4h-16l-428,5.3H40V1060.3z"/>
			<path class="st0" d="M40,1095.7h16l428,5.8h16v0.2h-16l-428-5.8H40V1095.7z"/>
			<path class="st0" d="M40,1095.9h16l428,47.2h16v0.2h-16l-428-47.2H40V1095.9z"/>
			<path class="st0" d="M40,1096.1h16l428-910.2h16v0.2h-16L56,1096.3H40V1096.1z"/>
			<path class="st0" d="M40,1104.3h16L484,26.2h16v0.3h-16L56,1104.6H40V1104.3z"/>
			<path class="st0" d="M40,1104.5h16l428-658.2h16v0.1h-16L56,1104.6L40,1104.5L40,1104.5z"/>
			<path class="st0" d="M40,1104.6h16l428-120.4h16v0.4h-16L56,1105H40V1104.6z"/>
			<path class="st0" d="M40,1105h16l428-14.6h16v1.8h-16l-428,14.6H40V1105z"/>
			<path class="st0" d="M40,1106.8h16l428-5.1h16v13.7h-16l-428,5.1H40V1106.8z"/>
			<path class="st0" d="M40,1128.5h16L484,51.9h16V52h-16L56,1128.6L40,1128.5L40,1128.5z"/>
			<path class="st0" d="M40,1128.6h16l428-793.4h16v0.1h-16L56,1128.7L40,1128.6L40,1128.6z"/>
			<path class="st0" d="M40,1128.7h16l428-619.5h16v3.9h-16L56,1132.6H40V1128.7z"/>
			<path class="st0" d="M40,1132.6h16l428-583.2h16v0.1h-16L56,1132.7L40,1132.6L40,1132.6z"/>
			<path class="st0" d="M40,1132.7h16l428-531.2h16v0.1h-16L56,1132.8L40,1132.7L40,1132.7z"/>
			<path class="st0" d="M40,1132.8h16l428-148.1h16v0.1h-16L56,1132.9L40,1132.8L40,1132.8z"/>
			<path class="st0" d="M40,1132.8h16l428-40.7h16v0.1h-16l-428,40.7L40,1132.8L40,1132.8z"/>
			<path class="st0" d="M40,1132.9h16l428-9.2h16v9.8h-16l-428,9.2H40V1132.9z"/>
			<path class="st0" d="M40,1142.8h16l428,0.5h16v0.1h-16l-428-0.5L40,1142.8L40,1142.8z"/>
			<path class="st0" d="M40,1142.9h16l428,89.8h16v0.1h-16L56,1143L40,1142.9L40,1142.9z"/>
			<path class="st0" d="M40,1143h16l428-932.1h16v0.8h-16L56,1143.8H40V1143z"/>
			<path class="st0" d="M40,1151.7h16l428-705.2h16v0.3h-16L56,1152H40V1151.7z"/>
			<path class="st0" d="M40,1152h16l428-476.5h16v0.3h-16L56,1152.3H40V1152z"/>
			<path class="st0" d="M40,1152.3h16l428-371h16v0.1h-16l-428,371L40,1152.3L40,1152.3z"/>
			<path class="st0" d="M40,1152.4h16l428-167.6h16v0.5h-16L56,1152.8H40V1152.4z"/>
			<path class="st0" d="M40,1152.8h16l428-60.6h16v0.4h-16l-428,60.6H40V1152.8z"/>
			<path class="st0" d="M40,1153.2h16l428-9.8h16v20.6h-16l-428,9.8H40V1153.2z"/>
			<path class="st0" d="M40,1173.8h16l428,70.1h16v0.1h-16l-428-70.1L40,1173.8L40,1173.8z"/>
			<path class="st0" d="M40,1173.9h16L484,186h16v0.1h-16L56,1174L40,1173.9L40,1173.9z"/>
			<path class="st0" d="M40,1182h16l428-294.2h16v0.1h-16L56,1182.1L40,1182L40,1182z"/>
			<path class="st0" d="M40,1182.1h16L484,127.6h16v0.6h-16L56,1182.7H40V1182.1z"/>
			<path class="st0" d="M40,1182.7h16l428-10.1h16v9.4h-16l-428,10.1H40V1182.7z"/>
			<path class="st0" d="M40,1192.1h16l428,79.5h16v0.5h-16l-428-79.5H40V1192.1z"/>
			<path class="st0" d="M40,1200.6h16l428-753.8h16v0.1h-16L56,1200.7L40,1200.6L40,1200.6z"/>
			<path class="st0" d="M40,1200.7h16l428-419.3h16v0.1h-16L56,1200.8L40,1200.7L40,1200.7z"/>
			<path class="st0" d="M40,1200.8h16l428-165.6h16v0.9h-16L56,1201.7H40V1200.8z"/>
			<path class="st0" d="M40,1201.6h16L484,128.1h16v0.1h-16L56,1201.7L40,1201.6L40,1201.6z"/>
			<path class="st0" d="M40,1201.7h16l428-10.2h16v33.2h-16l-428,10.2H40V1201.7z"/>
			<path class="st0" d="M40,1234.9h16l428,9.1h16v0.1h-16L56,1235L40,1234.9L40,1234.9z"/>
			<path class="st0" d="M40,1235h16L484,211.6h16v0.1h-16L56,1235.1L40,1235L40,1235z"/>
			<path class="st0" d="M40,1243.1h16l428-849h16v0.5h-16l-428,849H40V1243.1z"/>
			<path class="st0" d="M40,1243.5h16l428-682.4h16v0.2h-16L56,1243.7H40V1243.5z"/>
			<path class="st0" d="M40,1243.7h16l428-568h16v0.1h-16l-428,568L40,1243.7L40,1243.7z"/>
			<path class="st0" d="M40,1243.8h16l428-110.2h16v0.1h-16L56,1243.9L40,1243.8L40,1243.8z"/>
			<path class="st0" d="M40,1243.9h16l428-11.2h16v2.6h-16l-428,11.2H40V1243.9z"/>
			<path class="st0" d="M40,1246.5h16L484,154.6h16v0.1h-16L56,1246.5H40L40,1246.5z"/>
			<path class="st0" d="M40,1254.5h16L484,52h16v0.1h-16L56,1254.6L40,1254.5L40,1254.5z"/>
			<path class="st0" d="M40,1254.6h16l428-919.3h16v0.1h-16L56,1254.7L40,1254.6L40,1254.6z"/>
			<path class="st0" d="M40,1254.7h16l428-807.9h16v0.6h-16L56,1255.3H40V1254.7z"/>
			<path class="st0" d="M40,1255.3h16L484,513h16v13.7h-16L56,1269H40V1255.3z"/>
			<path class="st0" d="M40,1269h16l428-372h16v0.1h-16l-428,372L40,1269L40,1269z"/>
			<path class="st0" d="M40,1269.1h16l428-283.9h16v0.1h-16L56,1269.2L40,1269.1L40,1269.1z"/>
			<path class="st0" d="M40,1269.2h16l428-176.5h16v0.2h-16L56,1269.4H40V1269.2z"/>
			<path class="st0" d="M40,1269.4h16L484,1164h16v0.2h-16L56,1269.6H40V1269.4z"/>
			<path class="st0" d="M40,1269.6h16l428-25.5h16v17.9h-16l-428,25.5H40V1269.6z"/>
			<path class="st0" d="M40,1287.4h16l428-15.3h16v0.1h-16l-428,15.3L40,1287.4L40,1287.4z"/>
			<path class="st0" d="M40,1287.5h16l428,29.8h16v0.1h-16l-428-29.8L40,1287.5L40,1287.5z"/>
			<path class="st0" d="M40,148.7h16l428,206.8h16v0.6h-16L56,149.2H40V148.7z"/>
			<path class="st0" d="M40,149.2h16l428,791.5h16v0.1h-16L56,149.3L40,149.2L40,149.2z"/>
			<path class="st0" d="M40,149.3h16L484,1036h16v0.2h-16L56,149.5H40V149.3z"/>
			<path class="st0" d="M40,149.5h16l428-9.8h16v5h-16l-428,9.8H40V149.5z"/>
			<path class="st0" d="M40,1295.6h16L484,26.4h16v0.2h-16L56,1295.8H40V1295.6z"/>
			<path class="st0" d="M40,1295.8h16l428-960.4h16v0.1h-16L56,1295.9L40,1295.8L40,1295.8z"/>
			<path class="st0" d="M40,1295.9h16l428-746.4h16v0.7h-16L56,1296.6H40V1295.9z"/>
			<path class="st0" d="M40,1296.5h16l428-558.3h16v0.1h-16L56,1296.6L40,1296.5L40,1296.5z"/>
			<path class="st0" d="M40,1296.6h16l428-408.8h16v0.1h-16L56,1296.7L40,1296.6L40,1296.6z"/>
			<path class="st0" d="M40,1296.7h16l428-260.5h16v0.1h-16L56,1296.8L40,1296.7L40,1296.7z"/>
			<path class="st0" d="M40,1296.8h16L484,128.2h16v0.3h-16L56,1297.1H40V1296.8z"/>
			<path class="st0" d="M40,1297.1h16L484,1182h16v0.2h-16L56,1297.3H40V1297.1z"/>
			<path class="st0" d="M40,1297.3h16l428-25.1h16v21.8h-16l-428,25.1H40V1297.3z"/>
			<path class="st0" d="M40,1327.1h16l428-800.4h16v0.2h-16L56,1327.3H40V1327.1z"/>
			<path class="st0" d="M40,1327.3h16l428-766h16v0.1h-16l-428,766L40,1327.3L40,1327.3z"/>
			<path class="st0" d="M40,1327.4h16l428-651.6h16v0.1h-16L56,1327.5L40,1327.4L40,1327.4z"/>
			<path class="st0" d="M40,1327.5h16l428-415.9h16v0.1h-16L56,1327.6L40,1327.5L40,1327.5z"/>
			<path class="st0" d="M40,1327.6h16l428-24.8h16v6.2h-16l-428,24.8H40V1327.6z"/>
			<path class="st0" d="M40,1333.8h16L484,211.7h16v0.1h-16L56,1333.9L40,1333.8L40,1333.8z"/>
			<path class="st0" d="M40,1341.9h16l428-24.6h16v2.1h-16L56,1344H40V1341.9z"/>
			<path class="st0" d="M40,162.5h16l428,173h16v0.1h-16l-428-173L40,162.5L40,162.5z"/>
			<path class="st0" d="M40,162.6h16l428,208h16v1.2h-16l-428-208H40V162.6z"/>
			<path class="st0" d="M40,163.8h16l428-93h16V71h-16L56,164L40,163.8L40,163.8z"/>
			<path class="st0" d="M40,163.9h16l428,363h16v0.1h-16L56,164L40,163.9L40,163.9z"/>
			<path class="st0" d="M40,164h16l428,535.8h16v0.1h-16L56,164.1L40,164L40,164z"/>
			<path class="st0" d="M40,164.1h16L484,798h16v0.4h-16L56,164.5H40V164.1z"/>
			<path class="st0" d="M40,164.5h16l428,655.2h16v0.1h-16L56,164.6L40,164.5L40,164.5z"/>
			<path class="st0" d="M40,164.6h16l428,820.7h16v0.1h-16L56,164.7L40,164.6L40,164.6z"/>
			<path class="st0" d="M40,164.7h16l428,1170.8h16v0.1h-16L56,164.8L40,164.7L40,164.7z"/>
			<path class="st0" d="M40,164.8h16l428-10h16v6.8h-16l-428,10H40V164.8z"/>
			<path class="st0" d="M40,171.6h16l428-0.7h16v0.1h-16l-428,0.7L40,171.6L40,171.6z"/>
			<path class="st0" d="M40,179.7h16l428-153h16v0.1h-16l-428,153L40,179.7L40,179.7z"/>
			<path class="st0" d="M40,179.8h16L484,52.1h16v0.1h-16L56,179.9L40,179.8L40,179.8z"/>
			<path class="st0" d="M40,179.9h16l428,214.7h16v0.9h-16L56,180.8H40V179.9z"/>
			<path class="st0" d="M40,180.8h16L484,71h16v0.1h-16L56,180.9L40,180.8L40,180.8z"/>
			<path class="st0" d="M40,180.9h16l428,557.4h16v0.1h-16L56,181L40,180.9L40,180.9z"/>
			<path class="st0" d="M40,181h16l428,638.8h16v0.1h-16L56,181.1L40,181L40,181z"/>
			<path class="st0" d="M40,181.1h16l428,817.1h16v0.3h-16L56,181.4H40V181.1z"/>
			<path class="st0" d="M40,181.4h16l428,1000.8h16v0.1h-16L56,181.5L40,181.4L40,181.4z"/>
			<path class="st0" d="M40,181.5h16L484,1309h16v0.1h-16L56,181.6L40,181.5L40,181.5z"/>
			<path class="st0" d="M40,181.6h16l428-20h16v0.2h-16l-428,20H40V181.6z"/>
			<path class="st0" d="M40,181.7h16l428-10.8h16v5.3h-16L56,187H40V181.7z"/>
			<path class="st0" d="M40,195h16L484,26.7h16v0.1h-16L56,195.1L40,195L40,195z"/>
			<path class="st0" d="M40,195.1h16L484,52.2h16v0.1h-16L56,195.2L40,195.1L40,195.1z"/>
			<path class="st0" d="M40,195.2h16l428,252.2h16v0.2h-16L56,195.4H40V195.2z"/>
			<path class="st0" d="M40,195.4h16l428,586h16v0.1h-16l-428-586L40,195.4L40,195.4z"/>
			<path class="st0" d="M40,195.5h16l428,660.6h16v0.3h-16L56,195.8H40V195.5z"/>
			<path class="st0" d="M40,195.8h16L484,888h16v0.2h-16L56,196H40V195.8z"/>
			<path class="st0" d="M40,196h16l428,715.7h16v0.1h-16L56,196.1L40,196L40,196z"/>
			<path class="st0" d="M40,196.1h16l428,789.3h16v0.1h-16L56,196.2L40,196.1L40,196.1z"/>
			<path class="st0" d="M40,196.2h16l428,896.7h16v0.1h-16L56,196.3L40,196.2L40,196.2z"/>
			<path class="st0" d="M40,196.3h16l428-10.1h16v13.2h-16L56,209.5H40V196.3z"/>
			<path class="st0" d="M40,217.5h16L484,52.3h16v0.6h-16L56,218.1H40V217.5z"/>
			<path class="st0" d="M40,218.1h16l428,117.6h16v0.2h-16L56,218.2L40,218.1L40,218.1z"/>
			<path class="st0" d="M40,218.2h16l428,153.6h16v0.1h-16L56,218.3L40,218.2L40,218.2z"/>
			<path class="st0" d="M40,218.3h16l428,177.2h16v0.4h-16L56,218.7H40V218.3z"/>
			<path class="st0" d="M40,218.7h16l428,228.9h16v0.2h-16L56,218.9H40V218.7z"/>
			<path class="st0" d="M40,218.9h16L484,71.1h16v0.1h-16L56,219L40,218.9L40,218.9z"/>
			<path class="st0" d="M40,219h16l428,308h16v0.5h-16l-428-308H40V219z"/>
			<path class="st0" d="M40,219.5h16l428,382.1h16v1h-16L56,220.5H40V219.5z"/>
			<path class="st0" d="M40,220.5h16L484,645h16v0.9h-16L56,221.4H40V220.5z"/>
			<path class="st0" d="M40,221.4h16L484,676h16v0.1h-16L56,221.5L40,221.4L40,221.4z"/>
			<path class="st0" d="M40,221.5h16l428,560.1h16v0.1h-16L56,221.6L40,221.5L40,221.5z"/>
			<path class="st0" d="M40,221.6h16L484,820h16v0.3h-16L56,221.8H40V221.6z"/>
			<path class="st0" d="M40,221.8h16l428,911.9h16v0.4h-16L56,222.2H40V221.8z"/>
			<path class="st0" d="M40,222.2h16l428,1013.1h16v0.1h-16L56,222.3L40,222.2L40,222.2z"/>
			<path class="st0" d="M40,222.3h16l428,1039.6h16v0.1h-16L56,222.4L40,222.3L40,222.3z"/>
			<path class="st0" d="M40,222.4h16l428,1086.7h16v0.1h-16L56,222.5L40,222.4L40,222.4z"/>
			<path class="st0" d="M40,222.5h16l428-10.7h16v36.6h-16L56,259.1H40V222.5z"/>
		</g>
		<g>
			<g transform="translate(40, 0)">
				<g transform="translate(0, 16)">
					<rect y="0" pointer-events="none" class="st1" width="16" height="25.5"/>
					<rect y="0" class="st2" width="16" height="25.5"/>
					<text pointer-events="none" transform="matrix(1 0 0 1 -17.0117 12.7506)" class="st3 st4 st5">aa</text>
				</g>
				<g transform="translate(0, 49.50124275062137)">
					<rect y="0" pointer-events="none" class="st1" width="16" height="17.2"/>
					<rect y="0" class="st2" width="16" height="17.2"/>
					<text pointer-events="none" transform="matrix(1 0 0 1 -19.7559 8.5948)" class="st3 st4 st5">aai</text>
				</g>
				<g transform="translate(0, 74.69096934548467)">
					<rect y="0" pointer-events="none" class="st1" width="16" height="9.1"/>
					<rect y="0" class="st2" width="16" height="9.1"/>
					<text pointer-events="none" transform="matrix(1 0 0 1 -22.9297 4.5335)" class="st3 st4 st5">aak</text>
				</g>
				<g transform="translate(0, 91.75807787903894)">
					<rect y="0" pointer-events="none" class="st1" width="16" height="14.2"/>
					<rect y="0" class="st2" width="16" height="14.2"/>
					<text pointer-events="none" transform="matrix(1 0 0 1 -26.7383 7.0836)" class="st3 st4 st5">aam</text>
				</g>
				<g transform="translate(0, 113.92543496271747)">
					<rect y="0" pointer-events="none" class="st1" width="16" height="26.7"/>
					<rect y="0" class="st2" width="16" height="26.7"/>
					<text pointer-events="none" transform="matrix(1 0 0 1 -23.3398 13.3645)" class="st3 st4 st5">aan</text>
				</g>
				<g transform="translate(0, 148.65451532725766)">
					<rect y="0" pointer-events="none" class="st1" width="16" height="5.9"/>
					<rect y="0" class="st2" width="16" height="5.9"/>
					<text pointer-events="none" transform="matrix(1 0 0 1 -29.5703 2.9279)" class="st3 st4 st5">aang</text>
				</g>
				<g transform="translate(0, 162.51035625517812)">
					<rect y="0" pointer-events="none" class="st1" width="16" height="9.2"/>
					<rect y="0" class="st2" width="16" height="9.2"/>
					<text pointer-events="none" transform="matrix(1 0 0 1 -23.2422 4.5807)" class="st3 st4 st5">aap</text>
				</g>
				<g transform="translate(0, 179.6719138359569)">
					<rect y="0" pointer-events="none" class="st1" width="16" height="7.4"/>
					<rect y="0" class="st2" width="16" height="7.4"/>
					<text pointer-events="none" transform="matrix(1 0 0 1 -20.9521 3.6835)" class="st3 st4 st5">aat</text>
				</g>
				<g transform="translate(0, 195.03893951946975)">
					<rect y="0" pointer-events="none" class="st1" width="16" height="14.5"/>
					<rect y="0" class="st2" width="16" height="14.5"/>
					<text pointer-events="none" transform="matrix(1 0 0 1 -23.3398 7.2253)" class="st3 st4 st5">aau</text>
				</g>
				<g transform="translate(0, 217.48964374482188)">
					<rect y="0" pointer-events="none" class="st1" width="16" height="41.7"/>
					<rect y="0" class="st2" width="16" height="41.7"/>
					<text pointer-events="none" transform="matrix(1 0 0 1 -13.75 20.826)" class="st3 st4 st5">ai</text>
				</g>
				<g transform="translate(0, 267.1416735708368)">
					<rect y="0" pointer-events="none" class="st1" width="16" height="5.9"/>
					<rect y="0" class="st2" width="16" height="5.9"/>
					<text pointer-events="none" transform="matrix(1 0 0 1 -16.9238 2.9279)" class="st3 st4 st5">ak</text>
				</g>
				<g transform="translate(0, 280.99751449875725)">
					<rect y="0" pointer-events="none" class="st1" width="16" height="15.5"/>
					<rect y="0" class="st2" width="16" height="15.5"/>
					<text pointer-events="none" transform="matrix(1 0 0 1 -20.7324 7.7448)" class="st3 st4 st5">am</text>
				</g>
				<g transform="translate(0, 304.48715824357913)">
					<rect y="0" pointer-events="none" class="st1" width="16" height="35.9"/>
					<rect y="0" class="st2" width="16" height="35.9"/>
					<text pointer-events="none" transform="matrix(1 0 0 1 -17.334 17.9453)" class="st3 st4 st5">an</text>
				</g>
				<g transform="translate(0, 348.3777961888981)">
					<rect y="0" pointer-events="none" class="st1" width="16" height="14.5"/>
					<rect y="0" class="st2" width="16" height="14.5"/>
					<text pointer-events="none" transform="matrix(1 0 0 1 -23.5645 7.2253)" class="st3 st4 st5">ang</text>
				</g>
				<g transform="translate(0, 370.82850041425024)">
					<rect y="0" pointer-events="none" class="st1" width="16" height="5.9"/>
					<rect y="0" class="st2" width="16" height="5.9"/>
					<text pointer-events="none" transform="matrix(1 0 0 1 -17.2363 2.9278)" class="st3 st4 st5">ap</text>
				</g>
				<g transform="translate(0, 384.6843413421707)">
					<rect y="0" pointer-events="none" class="st1" width="16" height="15.9"/>
					<rect y="0" class="st2" width="16" height="15.9"/>
					<text pointer-events="none" transform="matrix(1 0 0 1 -14.9463 7.9337)" class="st3 st4 st5">at</text>
				</g>
				<g transform="translate(0, 408.5517812758907)">
					<rect y="0" pointer-events="none" class="st1" width="16" height="46"/>
					<rect y="0" class="st2" width="16" height="46"/>
					<text pointer-events="none" transform="matrix(1 0 0 1 -17.334 22.9984)" class="st3 st4 st5">au</text>
				</g>
				<g transform="translate(0, 462.54846727423364)">
					<rect y="0" pointer-events="none" class="st1" width="16" height="8.1"/>
					<rect y="0" class="st2" width="16" height="8.1"/>
					<text pointer-events="none" transform="matrix(1 0 0 1 -10.957 4.0613)" class="st3 st4 st5">e</text>
				</g>
				<g transform="translate(0, 478.67108533554267)">
					<rect y="0" pointer-events="none" class="st1" width="16" height="1.6"/>
					<rect y="0" class="st2" width="16" height="1.6"/>
					<text pointer-events="none" transform="matrix(1 0 0 1 -16.875 0.8028)" class="st3 st4 st5">ek</text>
				</g>
				<g transform="translate(0, 488.27671913835957)">
					<rect y="0" pointer-events="none" class="st1" width="16" height="4.3"/>
					<rect y="0" class="st2" width="16" height="4.3"/>
					<text pointer-events="none" transform="matrix(1 0 0 1 -23.5156 2.1723)" class="st3 st4 st5">eng</text>
				</g>
				<g transform="translate(0, 500.62137531068765)">
					<rect y="0" pointer-events="none" class="st1" width="16" height="11"/>
					<rect y="0" class="st2" width="16" height="11"/>
					<text pointer-events="none" transform="matrix(1 0 0 1 -19.7705 5.478)" class="st3 st4 st5">eoi</text>
				</g>
				<g transform="translate(0, 519.5774647887324)">
					<rect y="0" pointer-events="none" class="st1" width="16" height="15.5"/>
					<rect y="0" class="st2" width="16" height="15.5"/>
					<text pointer-events="none" transform="matrix(1 0 0 1 -23.3545 7.7448)" class="st3 st4 st5">eon</text>
				</g>
				<g transform="translate(0, 543.0671085335542)">
					<rect y="0" pointer-events="none" class="st1" width="16" height="4"/>
					<rect y="0" class="st2" width="16" height="4"/>
					<text pointer-events="none" transform="matrix(1 0 0 1 -20.9668 1.9834)" class="st3 st4 st5">eot</text>
				</g>
				<g transform="translate(0, 555.0339685169843)">
					<rect y="0" pointer-events="none" class="st1" width="16" height="69.5"/>
					<rect y="0" class="st2" width="16" height="69.5"/>
					<text pointer-events="none" transform="matrix(1 0 0 1 -7.7441 34.7572)" class="st3 st4 st5">i</text>
				</g>
				<g transform="translate(0, 632.5484672742336)">
					<rect y="0" pointer-events="none" class="st1" width="16" height="24.2"/>
					<rect y="0" class="st2" width="16" height="24.2"/>
					<text pointer-events="none" transform="matrix(1 0 0 1 -13.6621 12.0895)" class="st3 st4 st5">ik</text>
				</g>
				<g transform="translate(0, 664.7274233637116)">
					<rect y="0" pointer-events="none" class="st1" width="16" height="15"/>
					<rect y="0" class="st2" width="16" height="15"/>
					<text pointer-events="none" transform="matrix(1 0 0 1 -17.4707 7.5087)" class="st3 st4 st5">im</text>
				</g>
				<g transform="translate(0, 687.7448218724109)">
					<rect y="0" pointer-events="none" class="st1" width="16" height="29.8"/>
					<rect y="0" class="st2" width="16" height="29.8"/>
					<text pointer-events="none" transform="matrix(1 0 0 1 -14.0723 14.9229)" class="st3 st4 st5">in</text>
				</g>
				<g transform="translate(0, 725.5907207953603)">
					<rect y="0" pointer-events="none" class="st1" width="16" height="37.7"/>
					<rect y="0" class="st2" width="16" height="37.7"/>
					<text pointer-events="none" transform="matrix(1 0 0 1 -20.3027 18.8426)" class="st3 st4 st5">ing</text>
				</g>
				<g transform="translate(0, 771.2758906379453)">
					<rect y="0" pointer-events="none" class="st1" width="16" height="9.1"/>
					<rect y="0" class="st2" width="16" height="9.1"/>
					<text pointer-events="none" transform="matrix(1 0 0 1 -13.9746 4.5336)" class="st3 st4 st5">ip</text>
				</g>
				<g transform="translate(0, 788.3429991714995)">
					<rect y="0" pointer-events="none" class="st1" width="16" height="12.5"/>
					<rect y="0" class="st2" width="16" height="12.5"/>
					<text pointer-events="none" transform="matrix(1 0 0 1 -11.6846 6.2336)" class="st3 st4 st5">it</text>
				</g>
				<g transform="translate(0, 808.8102734051366)">
					<rect y="0" pointer-events="none" class="st1" width="16" height="27.7"/>
					<rect y="0" class="st2" width="16" height="27.7"/>
					<text pointer-events="none" transform="matrix(1 0 0 1 -14.0723 13.8368)" class="st3 st4 st5">iu</text>
				</g>
				<g transform="translate(0, 844.483844241922)">
					<rect y="0" pointer-events="none" class="st1" width="16" height="24.5"/>
					<rect y="0" class="st2" width="16" height="24.5"/>
					<text pointer-events="none" transform="matrix(1 0 0 1 -11.0693 12.2311)" class="st3 st4 st5">o</text>
				</g>
				<g transform="translate(0, 876.9461474730737)">
					<rect y="0" pointer-events="none" class="st1" width="16" height="0.9"/>
					<rect y="0" class="st2" width="16" height="0.9"/>
					<text pointer-events="none" transform="matrix(1 0 0 1 -17.0264 0.425)" class="st3 st4 st5">oe</text>
				</g>
				<g transform="translate(0, 885.7961888980943)">
					<rect y="0" pointer-events="none" class="st1" width="16" height="7.4"/>
					<rect y="0" class="st2" width="16" height="7.4"/>
					<text pointer-events="none" transform="matrix(1 0 0 1 -22.9443 3.6835)" class="st3 st4 st5">oek</text>
				</g>
				<g transform="translate(0, 901.1632145816071)">
					<rect y="0" pointer-events="none" class="st1" width="16" height="20.6"/>
					<rect y="0" class="st2" width="16" height="20.6"/>
					<text pointer-events="none" transform="matrix(1 0 0 1 -29.585 10.2949)" class="st3 st4 st5">oeng</text>
				</g>
				<g transform="translate(0, 929.7531068765533)">
					<rect y="0" pointer-events="none" class="st1" width="16" height="14.1"/>
					<rect y="0" class="st2" width="16" height="14.1"/>
					<text pointer-events="none" transform="matrix(1 0 0 1 -13.8135 7.0364)" class="st3 st4 st5">oi</text>
				</g>
				<g transform="translate(0, 951.8260149130073)">
					<rect y="0" pointer-events="none" class="st1" width="16" height="15.1"/>
					<rect y="0" class="st2" width="16" height="15.1"/>
					<text pointer-events="none" transform="matrix(1 0 0 1 -16.9873 7.5559)" class="st3 st4 st5">ok</text>
				</g>
				<g transform="translate(0, 974.937862468931)">
					<rect y="0" pointer-events="none" class="st1" width="16" height="6.8"/>
					<rect y="0" class="st2" width="16" height="6.8"/>
					<text pointer-events="none" transform="matrix(1 0 0 1 -20.7959 3.4001)" class="st3 st4 st5">om</text>
				</g>
				<g transform="translate(0, 989.7381938690967)">
					<rect y="0" pointer-events="none" class="st1" width="16" height="5.1"/>
					<rect y="0" class="st2" width="16" height="5.1"/>
					<text pointer-events="none" transform="matrix(1 0 0 1 -17.3975 2.5501)" class="st3 st4 st5">on</text>
				</g>
				<g transform="translate(0, 1002.838442419221)">
					<rect y="0" pointer-events="none" class="st1" width="16" height="30.3"/>
					<rect y="0" class="st2" width="16" height="30.3"/>
					<text pointer-events="none" transform="matrix(1 0 0 1 -23.6279 15.1591)" class="st3 st4 st5">ong</text>
				</g>
				<g transform="translate(0, 1041.1565865782932)">
					<rect y="0" pointer-events="none" class="st1" width="16" height="1.3"/>
					<rect y="0" class="st2" width="16" height="1.3"/>
					<text pointer-events="none" transform="matrix(1 0 0 1 -17.2998 0.6611)" class="st3 st4 st5">op</text>
				</g>
				<g transform="translate(0, 1050.4788732394366)">
					<rect y="0" pointer-events="none" class="st1" width="16" height="0.9"/>
					<rect y="0" class="st2" width="16" height="0.9"/>
					<text pointer-events="none" transform="matrix(1 0 0 1 -15.0098 0.425)" class="st3 st4 st5">ot</text>
				</g>
				<g transform="translate(0, 1059.3289146644572)">
					<rect y="0" pointer-events="none" class="st1" width="16" height="36.9"/>
					<rect y="0" class="st2" width="16" height="36.9"/>
					<text pointer-events="none" transform="matrix(1 0 0 1 -17.3975 18.4648)" class="st3 st4 st5">ou</text>
				</g>
				<g transform="translate(0, 1104.258492129246)">
					<rect y="0" pointer-events="none" class="st1" width="16" height="16.2"/>
					<rect y="0" class="st2" width="16" height="16.2"/>
					<text pointer-events="none" transform="matrix(1 0 0 1 -11.3281 8.1226)" class="st3 st4 st5">u</text>
				</g>
				<g transform="translate(0, 1128.503728251864)">
					<rect y="0" pointer-events="none" class="st1" width="16" height="15.2"/>
					<rect y="0" class="st2" width="16" height="15.2"/>
					<text pointer-events="none" transform="matrix(1 0 0 1 -14.0723 7.6031)" class="st3 st4 st5">ui</text>
				</g>
				<g transform="translate(0, 1151.7100248550123)">
					<rect y="0" pointer-events="none" class="st1" width="16" height="22.3"/>
					<rect y="0" class="st2" width="16" height="22.3"/>
					<text pointer-events="none" transform="matrix(1 0 0 1 -17.2461 11.145)" class="st3 st4 st5">uk</text>
				</g>
				<g transform="translate(0, 1181.9999999999998)">
					<rect y="0" pointer-events="none" class="st1" width="16" height="10.6"/>
					<rect y="0" class="st2" width="16" height="10.6"/>
					<text pointer-events="none" transform="matrix(1 0 0 1 -17.6562 5.2891)" class="st3 st4 st5">un</text>
				</g>
				<g transform="translate(0, 1200.5782932891464)">
					<rect y="0" pointer-events="none" class="st1" width="16" height="34.5"/>
					<rect y="0" class="st2" width="16" height="34.5"/>
					<text pointer-events="none" transform="matrix(1 0 0 1 -23.8867 17.2369)" class="st3 st4 st5">ung</text>
				</g>
				<g transform="translate(0, 1243.0521955260974)">
					<rect y="0" pointer-events="none" class="st1" width="16" height="3.5"/>
					<rect y="0" class="st2" width="16" height="3.5"/>
					<text pointer-events="none" transform="matrix(1 0 0 1 -15.2686 1.7473)" class="st3 st4 st5">ut</text>
				</g>
				<g transform="translate(0, 1254.5468102734048)">
					<rect y="0" pointer-events="none" class="st1" width="16" height="33.1"/>
					<rect y="0" class="st2" width="16" height="33.1"/>
					<text pointer-events="none" transform="matrix(1 0 0 1 -17.2461 16.5286)" class="st3 st4 st5">yu</text>
				</g>
				<g transform="translate(0, 1295.6039768019882)">
					<rect y="0" pointer-events="none" class="st1" width="16" height="23.5"/>
					<rect y="0" class="st2" width="16" height="23.5"/>
					<text pointer-events="none" transform="matrix(1 0 0 1 -23.5742 11.7589)" class="st3 st4 st5">yun</text>
				</g>
				<g transform="translate(0, 1327.1217895608945)">
					<rect y="0" pointer-events="none" class="st1" width="16" height="6.8"/>
					<rect y="0" class="st2" width="16" height="6.8"/>
					<text pointer-events="none" transform="matrix(1 0 0 1 -21.1865 3.4001)" class="st3 st4 st5">yut</text>
				</g>
				<g transform="translate(0, 1341.9221209610603)">
					<rect y="0" pointer-events="none" class="st1" width="16" height="2.1"/>
					<rect y="0" class="st2" width="16" height="2.1"/>
					<text pointer-events="none" transform="matrix(1 0 0 1 -11.0693 1.0389)" class="st3 st4 st5"></text>
				</g>
			</g>
			<g transform="translate(484, 0)">
				<g transform="translate(0, 0)">
					<rect y="0" pointer-events="none" class="st1" width="16" height="26.8"/>
					<rect y="0" class="st6" width="16" height="26.8"/>
					<text pointer-events="none" transform="matrix(1 0 0 1 21 13.4117)" class="st3 st4 st5">aa</text>
				</g>
				<g transform="translate(0, 34.82352941176471)">
					<rect y="0" pointer-events="none" class="st1" width="16" height="18"/>
					<rect y="0" class="st6" width="16" height="18"/>
					<text pointer-events="none" transform="matrix(1 0 0 1 21 9.0198)" class="st3 st4 st5">aai</text>
				</g>
				<g transform="translate(0, 60.86329743164872)">
					<rect y="0" pointer-events="none" class="st1" width="16" height="10.3"/>
					<rect y="0" class="st6" width="16" height="10.3"/>
					<text pointer-events="none" transform="matrix(1 0 0 1 21 5.1473)" class="st3 st4 st5">aak</text>
				</g>
				<g transform="translate(0, 79.15824357912179)">
					<rect y="0" pointer-events="none" class="st1" width="16" height="14.7"/>
					<rect y="0" class="st6" width="16" height="14.7"/>
					<text pointer-events="none" transform="matrix(1 0 0 1 21 7.367)" class="st3 st4 st5">aam</text>
				</g>
				<g transform="translate(0, 101.89229494614747)">
					<rect y="0" pointer-events="none" class="st1" width="16" height="26.6"/>
					<rect y="0" class="st6" width="16" height="26.6"/>
					<text pointer-events="none" transform="matrix(1 0 0 1 21 13.3173)" class="st3 st4 st5">aan</text>
				</g>
				<g transform="translate(0, 136.52692626346314)">
					<rect y="0" pointer-events="none" class="st1" width="16" height="8.2"/>
					<rect y="0" class="st6" width="16" height="8.2"/>
					<text pointer-events="none" transform="matrix(1 0 0 1 21 4.1085)" class="st3 st4 st5">aang</text>
				</g>
				<g transform="translate(0, 152.74399337199668)">
					<rect y="0" pointer-events="none" class="st1" width="16" height="9"/>
					<rect y="0" class="st6" width="16" height="9"/>
					<text pointer-events="none" transform="matrix(1 0 0 1 21 4.4863)" class="st3 st4 st5">aap</text>
				</g>
				<g transform="translate(0, 169.71665285832643)">
					<rect y="0" pointer-events="none" class="st1" width="16" height="6.5"/>
					<rect y="0" class="st6" width="16" height="6.5"/>
					<text pointer-events="none" transform="matrix(1 0 0 1 21 3.2585)" class="st3 st4 st5">aat</text>
				</g>
				<g transform="translate(0, 184.23363711681856)">
					<rect y="0" pointer-events="none" class="st1" width="16" height="15.1"/>
					<rect y="0" class="st6" width="16" height="15.1"/>
					<text pointer-events="none" transform="matrix(1 0 0 1 21 7.5559)" class="st3 st4 st5">aau</text>
				</g>
				<g transform="translate(0, 207.34548467274234)">
					<rect y="0" pointer-events="none" class="st1" width="16" height="41.1"/>
					<rect y="0" class="st6" width="16" height="41.1"/>
					<text pointer-events="none" transform="matrix(1 0 0 1 21 20.5427)" class="st3 st4 st5">ai</text>
				</g>
				<g transform="translate(0, 256.4308202154101)">
					<rect y="0" pointer-events="none" class="st1" width="16" height="5.7"/>
					<rect y="0" class="st6" width="16" height="5.7"/>
					<text pointer-events="none" transform="matrix(1 0 0 1 21 2.8335)" class="st3 st4 st5">ak</text>
				</g>
				<g transform="translate(0, 270.0977630488815)">
					<rect y="0" pointer-events="none" class="st1" width="16" height="21.2"/>
					<rect y="0" class="st6" width="16" height="21.2"/>
					<text pointer-events="none" transform="matrix(1 0 0 1 21 10.5783)" class="st3 st4 st5">am</text>
				</g>
				<g transform="translate(0, 299.2543496271748)">
					<rect y="0" pointer-events="none" class="st1" width="16" height="36.6"/>
					<rect y="0" class="st6" width="16" height="36.6"/>
					<text pointer-events="none" transform="matrix(1 0 0 1 21 18.2759)" class="st3 st4 st5">an</text>
				</g>
				<g transform="translate(0, 343.8061309030654)">
					<rect y="0" pointer-events="none" class="st1" width="16" height="12.2"/>
					<rect y="0" class="st6" width="16" height="12.2"/>
					<text pointer-events="none" transform="matrix(1 0 0 1 21 6.0919)" class="st3 st4 st5">ang</text>
				</g>
				<g transform="translate(0, 363.99005799502896)">
					<rect y="0" pointer-events="none" class="st1" width="16" height="7.9"/>
					<rect y="0" class="st6" width="16" height="7.9"/>
					<text pointer-events="none" transform="matrix(1 0 0 1 21 3.9668)" class="st3 st4 st5">ap</text>
				</g>
				<g transform="translate(0, 379.92377796188896)">
					<rect y="0" pointer-events="none" class="st1" width="16" height="16"/>
					<rect y="0" class="st6" width="16" height="16"/>
					<text pointer-events="none" transform="matrix(1 0 0 1 21 7.9809)" class="st3 st4 st5">at</text>
				</g>
				<g transform="translate(0, 403.88566694283344)">
					<rect y="0" pointer-events="none" class="st1" width="16" height="43.9"/>
					<rect y="0" class="st6" width="16" height="43.9"/>
					<text pointer-events="none" transform="matrix(1 0 0 1 21 21.9594)" class="st3 st4 st5">au</text>
				</g>
				<g transform="translate(0, 455.8044739022369)">
					<rect y="0" pointer-events="none" class="st1" width="16" height="9"/>
					<rect y="0" class="st6" width="16" height="9"/>
					<text pointer-events="none" transform="matrix(1 0 0 1 21 4.4863)" class="st3 st4 st5">e</text>
				</g>
				<g transform="translate(0, 472.77713338856665)">
					<rect y="0" pointer-events="none" class="st1" width="16" height="3.2"/>
					<rect y="0" class="st6" width="16" height="3.2"/>
					<text pointer-events="none" transform="matrix(1 0 0 1 21 1.6055)" class="st3 st4 st5">ek</text>
				</g>
				<g transform="translate(0, 483.98840099420045)">
					<rect y="0" pointer-events="none" class="st1" width="16" height="5.3"/>
					<rect y="0" class="st6" width="16" height="5.3"/>
					<text pointer-events="none" transform="matrix(1 0 0 1 21 2.6445)" class="st3 st4 st5">eng</text>
				</g>
				<g transform="translate(0, 497.2775476387738)">
					<rect y="0" pointer-events="none" class="st1" width="16" height="30.2"/>
					<rect y="0" class="st6" width="16" height="30.2"/>
					<text pointer-events="none" transform="matrix(1 0 0 1 21 15.1118)" class="st3 st4 st5">eoi</text>
				</g>
				<g transform="translate(0, 535.5012427506214)">
					<rect y="0" pointer-events="none" class="st1" width="16" height="14.6"/>
					<rect y="0" class="st6" width="16" height="14.6"/>
					<text pointer-events="none" transform="matrix(1 0 0 1 21 7.3198)" class="st3 st4 st5">eon</text>
				</g>
				<g transform="translate(0, 558.1408450704225)">
					<rect y="0" pointer-events="none" class="st1" width="16" height="3.3"/>
					<rect y="0" class="st6" width="16" height="3.3"/>
					<text pointer-events="none" transform="matrix(1 0 0 1 21 1.6528)" class="st3 st4 st5">eot</text>
				</g>
				<g transform="translate(0, 569.4465617232809)">
					<rect y="0" pointer-events="none" class="st1" width="16" height="33.2"/>
					<rect y="0" class="st6" width="16" height="33.2"/>
					<text pointer-events="none" transform="matrix(1 0 0 1 21 16.5758)" class="st3 st4 st5">ei</text>
				</g>
				<g transform="translate(0, 610.5981772990887)">
					<rect y="0" pointer-events="none" class="st1" width="16" height="35.2"/>
					<rect y="0" class="st6" width="16" height="35.2"/>
					<text pointer-events="none" transform="matrix(1 0 0 1 21 17.6147)" class="st3 st4 st5">i</text>
				</g>
				<g transform="translate(0, 653.827671913836)">
					<rect y="0" pointer-events="none" class="st1" width="16" height="22.2"/>
					<rect y="0" class="st6" width="16" height="22.2"/>
					<text pointer-events="none" transform="matrix(1 0 0 1 21 11.0978)" class="st3 st4 st5">ik</text>
				</g>
				<g transform="translate(0, 684.023198011599)">
					<rect y="0" pointer-events="none" class="st1" width="16" height="15.9"/>
					<rect y="0" class="st6" width="16" height="15.9"/>
					<text pointer-events="none" transform="matrix(1 0 0 1 21 7.9337)" class="st3 st4 st5">im</text>
				</g>
				<g transform="translate(0, 707.890637945319)">
					<rect y="0" pointer-events="none" class="st1" width="16" height="30.5"/>
					<rect y="0" class="st6" width="16" height="30.5"/>
					<text pointer-events="none" transform="matrix(1 0 0 1 21 15.2535)" class="st3 st4 st5">in</text>
				</g>
				<g transform="translate(0, 746.3976801988401)">
					<rect y="0" pointer-events="none" class="st1" width="16" height="35.2"/>
					<rect y="0" class="st6" width="16" height="35.2"/>
					<text pointer-events="none" transform="matrix(1 0 0 1 21 17.6147)" class="st3 st4 st5">ing</text>
				</g>
				<g transform="translate(0, 789.6271748135874)">
					<rect y="0" pointer-events="none" class="st1" width="16" height="8.8"/>
					<rect y="0" class="st6" width="16" height="8.8"/>
					<text pointer-events="none" transform="matrix(1 0 0 1 21 4.3919)" class="st3 st4 st5">ip</text>
				</g>
				<g transform="translate(0, 806.4109362054681)">
					<rect y="0" pointer-events="none" class="st1" width="16" height="13.8"/>
					<rect y="0" class="st6" width="16" height="13.8"/>
					<text pointer-events="none" transform="matrix(1 0 0 1 21 6.8948)" class="st3 st4 st5">it</text>
				</g>
				<g transform="translate(0, 828.2004971002486)">
					<rect y="0" pointer-events="none" class="st1" width="16" height="28.2"/>
					<rect y="0" class="st6" width="16" height="28.2"/>
					<text pointer-events="none" transform="matrix(1 0 0 1 21 14.1201)" class="st3 st4 st5">iu</text>
				</g>
				<g transform="translate(0, 864.4407622203812)">
					<rect y="0" pointer-events="none" class="st1" width="16" height="23.7"/>
					<rect y="0" class="st6" width="16" height="23.7"/>
					<text pointer-events="none" transform="matrix(1 0 0 1 21 11.8533)" class="st3 st4 st5">o</text>
				</g>
				<g transform="translate(0, 896.1474730737366)">
					<rect y="0" pointer-events="none" class="st1" width="16" height="0.9"/>
					<rect y="0" class="st6" width="16" height="0.9"/>
					<text pointer-events="none" transform="matrix(1 0 0 1 21 0.4722)" class="st3 st4 st5">oe</text>
				</g>
				<g transform="translate(0, 905.0919635459818)">
					<rect y="0" pointer-events="none" class="st1" width="16" height="6.7"/>
					<rect y="0" class="st6" width="16" height="6.7"/>
					<text pointer-events="none" transform="matrix(1 0 0 1 21 3.3529)" class="st3 st4 st5">oek</text>
				</g>
				<g transform="translate(0, 919.797845898923)">
					<rect y="0" pointer-events="none" class="st1" width="16" height="21.1"/>
					<rect y="0" class="st6" width="16" height="21.1"/>
					<text pointer-events="none" transform="matrix(1 0 0 1 21 10.5311)" class="st3 st4 st5">oeng</text>
				</g>
				<g transform="translate(0, 948.8599834299918)">
					<rect y="0" pointer-events="none" class="st1" width="16" height="13.6"/>
					<rect y="0" class="st6" width="16" height="13.6"/>
					<text pointer-events="none" transform="matrix(1 0 0 1 21 6.8003)" class="st3 st4 st5">oi</text>
				</g>
				<g transform="translate(0, 970.4606462303232)">
					<rect y="0" pointer-events="none" class="st1" width="16" height="15"/>
					<rect y="0" class="st6" width="16" height="15"/>
					<text pointer-events="none" transform="matrix(1 0 0 1 21 7.5087)" class="st3 st4 st5">ok</text>
				</g>
				<g transform="translate(0, 993.4780447390224)">
					<rect y="0" pointer-events="none" class="st1" width="16" height="5"/>
					<rect y="0" class="st6" width="16" height="5"/>
					<text pointer-events="none" transform="matrix(1 0 0 1 21 2.5029)" class="st3 st4 st5">on</text>
				</g>
				<g transform="translate(0, 1006.4838442419222)">
					<rect y="0" pointer-events="none" class="st1" width="16" height="29.8"/>
					<rect y="0" class="st6" width="16" height="29.8"/>
					<text pointer-events="none" transform="matrix(1 0 0 1 21 14.9229)" class="st3 st4 st5">ong</text>
				</g>
				<g transform="translate(0, 1044.3297431648716)">
					<rect y="0" pointer-events="none" class="st1" width="16" height="1.1"/>
					<rect y="0" class="st6" width="16" height="1.1"/>
					<text pointer-events="none" transform="matrix(1 0 0 1 21 0.5667)" class="st3 st4 st5">ot</text>
				</g>
				<g transform="translate(0, 1053.463131731566)">
					<rect y="0" pointer-events="none" class="st1" width="16" height="39.5"/>
					<rect y="0" class="st6" width="16" height="39.5"/>
					<text pointer-events="none" transform="matrix(1 0 0 1 21 19.7398)" class="st3 st4 st5">ou</text>
				</g>
				<g transform="translate(0, 1100.9428334714169)">
					<rect y="0" pointer-events="none" class="st1" width="16" height="14.5"/>
					<rect y="0" class="st6" width="16" height="14.5"/>
					<text pointer-events="none" transform="matrix(1 0 0 1 21 7.2253)" class="st3 st4 st5">u</text>
				</g>
				<g transform="translate(0, 1123.393537696769)">
					<rect y="0" pointer-events="none" class="st1" width="16" height="10.7"/>
					<rect y="0" class="st6" width="16" height="10.7"/>
					<text pointer-events="none" transform="matrix(1 0 0 1 21 5.3363)" class="st3 st4 st5">ui</text>
				</g>
				<g transform="translate(0, 1142.0662800331402)">
					<rect y="0" pointer-events="none" class="st1" width="16" height="22.1"/>
					<rect y="0" class="st6" width="16" height="22.1"/>
					<text pointer-events="none" transform="matrix(1 0 0 1 21 11.0505)" class="st3 st4 st5">uk</text>
				</g>
				<g transform="translate(0, 1172.1673570836788)">
					<rect y="0" pointer-events="none" class="st1" width="16" height="10.1"/>
					<rect y="0" class="st6" width="16" height="10.1"/>
					<text pointer-events="none" transform="matrix(1 0 0 1 21 5.053)" class="st3 st4 st5">un</text>
				</g>
				<g transform="translate(0, 1190.2734051367029)">
					<rect y="0" pointer-events="none" class="st1" width="16" height="34.4"/>
					<rect y="0" class="st6" width="16" height="34.4"/>
					<text pointer-events="none" transform="matrix(1 0 0 1 21 17.1897)" class="st3 st4 st5">ung</text>
				</g>
				<g transform="translate(0, 1232.6528583264294)">
					<rect y="0" pointer-events="none" class="st1" width="16" height="2.7"/>
					<rect y="0" class="st6" width="16" height="2.7"/>
					<text pointer-events="none" transform="matrix(1 0 0 1 21 1.3695)" class="st3 st4 st5">ut</text>
				</g>
				<g transform="translate(0, 1243.3918806959405)">
					<rect y="0" pointer-events="none" class="st1" width="16" height="18.6"/>
					<rect y="0" class="st6" width="16" height="18.6"/>
					<text pointer-events="none" transform="matrix(1 0 0 1 21 9.3032)" class="st3 st4 st5">yu</text>
				</g>
				<g transform="translate(0, 1269.9983429991717)">
					<rect y="0" pointer-events="none" class="st1" width="16" height="24"/>
					<rect y="0" class="st6" width="16" height="24"/>
					<text pointer-events="none" transform="matrix(1 0 0 1 21 11.995)" class="st3 st4 st5">yun</text>
				</g>
				<g transform="translate(0, 1301.9884009942007)">
					<rect y="0" pointer-events="none" class="st1" width="16" height="7.2"/>
					<rect y="0" class="st6" width="16" height="7.2"/>
					<text pointer-events="none" transform="matrix(1 0 0 1 21 3.589)" class="st3 st4 st5">yut</text>
				</g>
				<g transform="translate(0, 1317.1665285832644)">
					<rect y="0" pointer-events="none" class="st1" width="16" height="2.3"/>
					<rect y="0" class="st6" width="16" height="2.3"/>
					<text pointer-events="none" transform="matrix(1 0 0 1 21 1.1333)" class="st3 st4 st5"></text>
				</g>
				<g transform="translate(0, 1327.433305716653)">
					<rect y="0" pointer-events="none" class="st1" width="16" height="0.1"/>
					<rect y="0" class="st6" width="16" height="0.1"/>
					<text pointer-events="none" transform="matrix(1 0 0 1 21 4.722617e-02)" class="st3 st4 st5">em</text>
				</g>
				<g transform="translate(0, 1335.5277547638775)">
					<rect y="0" pointer-events="none" class="st1" width="16" height="0.1"/>
					<rect y="0" class="st6" width="16" height="0.1"/>
					<text pointer-events="none" transform="matrix(1 0 0 1 21 4.722652e-02)" class="st3 st4 st5">ep</text>
				</g>
				<g transform="translate(0, 1343.622203811102)">
					<rect y="0" pointer-events="none" class="st1" width="16" height="0.1"/>
					<rect y="0" class="st6" width="16" height="0.1"/>
					<text pointer-events="none" transform="matrix(1 0 0 1 21 4.722695e-02)" class="st3 st4 st5">ng</text>
				</g>
				<g transform="translate(0, 1351.7166528583266)">
					<rect y="0" pointer-events="none" class="st1" width="16" height="0.1"/>
					<rect y="0" class="st6" width="16" height="0.1"/>
					<text pointer-events="none" transform="matrix(1 0 0 1 21 4.722637e-02)" class="st3 st4 st5">oet</text>
				</g>
				<g transform="translate(0, 1359.8111019055511)">
					<rect y="0" pointer-events="none" class="st1" width="16" height="0.2"/>
					<rect y="0" class="st6" width="16" height="0.2"/>
					<text pointer-events="none" transform="matrix(1 0 0 1 21 9.440696e-02)" class="st3 st4 st5">eu</text>
				</g>
			</g>
		</g>
	</g>
</g>
<text transform="matrix(1 0 0 1 620 705.4855)" class="st7 st8"></text>
<rect x="56.5" y="705.5" class="st9" width="19" height="65"/>
<text transform="matrix(1 0 0 1 71.7812 705.4503)" class="st7 st8"></text>
</svg>
