<?xml version="1.0" encoding="utf-8"?>
<!-- Generator: Adobe Illustrator 23.0.1, SVG Export Plug-In . SVG Version: 6.00 Build 0)  -->
<svg version="1.1" id="Layer_1" xmlns="http://www.w3.org/2000/svg" xmlns:xlink="http://www.w3.org/1999/xlink" x="0px" y="0px"
	 viewBox="0 0 700 800" style="enable-background:new 0 0 700 800;" xml:space="preserve">
<style type="text/css">
	.st0{fill:#DD58BA;fill-opacity:0.6;stroke:#D3D3D3;stroke-width:0.2;}
	.st1{fill:none;stroke:#000000;}
	.st2{fill:#BC2E53;}
	.st3{fill:#2A3F5F;enable-background:new    ;}
	.st4{font-family:'Verdana';}
	.st5{font-size:10px;}
	.st6{fill:none;}
	.st7{fill:#2A3F5F;}
	.st8{font-family:'HanmiunLeisjo-Regular';}
	.st9{font-size:12px;glyph-orientation-vertical:0;writing-mode:tb;}
	.st10{fill:#8F49B7;}
</style>
<g>
	<g transform="translate(80, 60)">
		<g>
			<path class="st0" d="M40,570.7h16l428-11.7h16v6.8h-16L56,577.5H40V570.7z"/>
			<path class="st0" d="M40,0h16l428,12h16v18.7h-16l-428-12H40V0z"/>
			<path class="st0" d="M40,21.5h16l428,44.5h16V66h-16L56,21.6H40V21.5z"/>
			<path class="st0" d="M40,21.6h16l428,74.6h16v0.4h-16L56,22H40V21.6z"/>
			<path class="st0" d="M40,22h16l428,134h16v0.1h-16L56,22L40,22L40,22z"/>
			<path class="st0" d="M40,30h16l428,0.7h16v1.8h-16L56,31.8H40V30z"/>
			<path class="st0" d="M40,31.8h16l428,12.5h16v13.2h-16L56,44.9H40V31.8z"/>
			<path class="st0" d="M40,44.9h16l428,270.3h16v0.1h-16L56,45H40V44.9z"/>
			<path class="st0" d="M40,45h16l428,289.3h16v0.1h-16c0,0-428-289.3-428-289.3L40,45L40,45z"/>
			<path class="st0" d="M40,45.1h16L484,460h16v0.1h-16L56,45.1L40,45.1L40,45.1z"/>
			<path class="st0" d="M40,45.1h16l428,461.4h16v0.1h-16c0,0-428-461.4-428-461.4L40,45.1L40,45.1z"/>
			<path class="st0" d="M40,45.2h16L484,66h16v0.2h-16c0,0-428-20.9-428-20.9H40V45.2z"/>
			<path class="st0" d="M40,45.4h16l428,51.2h16v0.3h-16L56,45.6H40V45.4z"/>
			<path class="st0" d="M40,305h16L484,32.5h16v0.1h-16L56,305L40,305L40,305z"/>
			<path class="st0" d="M40,305h16l428,10.3h16v8.7h-16L56,313.7H40V305z"/>
			<path class="st0" d="M40,313.7h16l428,20.7h16v0.3h-16L56,314H40V313.7z"/>
			<path class="st0" d="M40,314h16l428,85.8h16v0.2h-16L56,314.2H40V314z"/>
			<path class="st0" d="M40,314.2h16l428,244.3h16v0.4h-16c0,0-428-244.3-428-244.3H40V314.2z"/>
			<path class="st0" d="M40,314.5h16l428,260h16v0.4h-16l-428-260H40V314.5z"/>
			<path class="st0" d="M40,314.9h16L484,66.2h16v0.1h-16L56,315L40,314.9L40,314.9z"/>
			<path class="st0" d="M40,315h16l428-190.9h16v0.1h-16c0,0-428,190.9-428,190.9L40,315L40,315z"/>
			<path class="st0" d="M40,315h16l428-110.8h16v0.1h-16L56,315.1L40,315L40,315z"/>
			<path class="st0" d="M40,315.1h16l428-68.4h16v0.1h-16L56,315.2H40V315.1z"/>
			<path class="st0" d="M40,323.2h16L484,57.4h16v0.1h-16L56,323.2L40,323.2L40,323.2z"/>
			<path class="st0" d="M40,323.2h16l428,0.8h16v0.2h-16c0,0-428-0.8-428-0.8H40V323.2z"/>
			<path class="st0" d="M40,323.4h16l428,11.3h16v26.1h-16L56,349.4H40V323.4z"/>
			<path class="st0" d="M40,349.4h16l428,39.2h16v0.1h-16L56,349.5L40,349.4L40,349.4z"/>
			<path class="st0" d="M40,349.5h16l428,50.4h16v0.1h-16L56,349.5L40,349.5L40,349.5z"/>
			<path class="st0" d="M40,349.5h16L484,460h16v0.1h-16L56,349.6H40V349.5z"/>
			<path class="st0" d="M40,349.6h16l428,156.9h16v0.2h-16c0,0-428-156.9-428-156.9H40V349.6z"/>
			<path class="st0" d="M40,349.8h16l428,225h16v0.3h-16c0,0-428-225-428-225H40V349.8z"/>
			<path class="st0" d="M40,350.1h16l428,278.4h16v0.1h-16L56,350.2L40,350.1L40,350.1z"/>
			<path class="st0" d="M40,350.2h16l428-145.9h16v0.1h-16L56,350.3L40,350.2L40,350.2z"/>
			<path class="st0" d="M40,350.3h16l428-103.5h16v1h-16L56,351.3H40V350.3z"/>
			<path class="st0" d="M40,351.3h16l428-60.7h16v0.5h-16c0,0-428,60.7-428,60.7H40V351.3z"/>
			<path class="st0" d="M40,359.8h16l428,13.1h16v6.6h-16L56,366.3H40V359.8z"/>
			<path class="st0" d="M40,366.3h16l428,22.4h16v0.7h-16c0,0-428-22.4-428-22.4H40V366.3z"/>
			<path class="st0" d="M40,367h16l428,208.2h16v0.1h-16L56,367.1H40V367z"/>
			<path class="st0" d="M40,367.1h16l428,261.5h16v0.3h-16c0,0-428-261.5-428-261.5H40V367.1z"/>
			<path class="st0" d="M40,367.4h16L484,66.3h16v0.1h-16L56,367.4L40,367.4L40,367.4z"/>
			<path class="st0" d="M40,367.4h16L484,96.9h16v0.3h-16c0,0-428,270.6-428,270.6H40V367.4z"/>
			<path class="st0" d="M40,367.7h16l428-243.5h16v0.1h-16L56,367.7L40,367.7L40,367.7z"/>
			<path class="st0" d="M40,367.7h16L484,156h16v0.1h-16L56,367.8L40,367.7L40,367.7z"/>
			<path class="st0" d="M40,367.8h16l428-120h16v0.3h-16c0,0-428,120-428,120H40V367.8z"/>
			<path class="st0" d="M40,368.1h16L484,291h16v0.1h-16L56,368.2H40V368.1z"/>
			<path class="st0" d="M40,376.2h16l428,3.2h16v0.3h-16l-428-3.2H40V376.2z"/>
			<path class="st0" d="M40,376.4h16l428,13h16v2h-16l-428-13H40V376.4z"/>
			<path class="st0" d="M40,378.4h16l428,250.5h16v0.1h-16L56,378.4L40,378.4L40,378.4z"/>
			<path class="st0" d="M40,378.4h16l428-87.3h16v0.1h-16c0,0-428,87.3-428,87.3L40,378.4L40,378.4z"/>
			<path class="st0" d="M40,386.5h16L484,400h16v20.7h-16L56,407.2H40V386.5z"/>
			<path class="st0" d="M40,407.2h16l428,52.9h16v1.1h-16c0,0-428-52.9-428-52.9H40V407.2z"/>
			<path class="st0" d="M40,408.3h16l428,98.5h16v0.5h-16c0,0-428-98.5-428-98.5H40V408.3z"/>
			<path class="st0" d="M40,408.7h16l428,166.6h16v0.1h-16c0,0-428-166.6-428-166.6H40V408.7z"/>
			<path class="st0" d="M40,408.8h16l428-117.7h16v0.1h-16L56,408.9L40,408.8L40,408.8z"/>
			<path class="st0" d="M40,416.9h16L484,32.5h16v0.1h-16L56,416.9L40,416.9L40,416.9z"/>
			<path class="st0" d="M40,416.9h16l428-37.3h16v0.1h-16c0,0-428,37.3-428,37.3L40,416.9L40,416.9z"/>
			<path class="st0" d="M40,417h16l428,3.7h16V446h-16l-428-3.7H40V417z"/>
			<path class="st0" d="M40,442.3h16l428,18.9h16v1h-16L56,443.3H40V442.3z"/>
			<path class="st0" d="M40,443.3h16l428,63.9h16v0.7h-16L56,444H40V443.3z"/>
			<path class="st0" d="M40,444h16l428,114.9h16v0.1h-16c0,0-428-114.9-428-114.9L40,444L40,444z"/>
			<path class="st0" d="M40,444h16l428,131.4h16v0.1h-16L56,444.1H40V444z"/>
			<path class="st0" d="M40,444.1h16l428-319.9h16v0.4h-16c0,0-428,319.9-428,319.9H40V444.1z"/>
			<path class="st0" d="M40,444.5h16l428-288.4h16v0.4h-16c0,0-428,288.4-428,288.4H40V444.5z"/>
			<path class="st0" d="M40,444.8h16l428-259.9h16v0.1h-16L56,444.9H40V444.8z"/>
			<path class="st0" d="M40,444.9h16l428-240.6h16v0.1h-16L56,445L40,444.9L40,444.9z"/>
			<path class="st0" d="M40,445h16l428-196.9h16v0.1h-16L56,445L40,445L40,445z"/>
			<path class="st0" d="M40,445h16l428-153.8h16v0.1h-16L56,445.1H40V445z"/>
			<path class="st0" d="M40,453.1h16l428-92.4h16v0.1h-16L56,453.2L40,453.1L40,453.1z"/>
			<path class="st0" d="M40,453.2h16l428-7.2h16v1.2h-16l-428,7.2H40V453.2z"/>
			<path class="st0" d="M40,454.3h16l428,7.9h16v17.1h-16c0,0-428-7.9-428-7.9H40V454.3z"/>
			<path class="st0" d="M40,471.5h16l428,36.4h16v0.6h-16L56,472H40V471.5z"/>
			<path class="st0" d="M40,472h16l428,103.5h16v0.1h-16c0,0-428-103.5-428-103.5H40V472z"/>
			<path class="st0" d="M40,472.1h16l428-347.6h16v0.1h-16c0,0-428,347.6-428,347.6L40,472.1L40,472.1z"/>
			<path class="st0" d="M40,472.2h16l428-315.7h16v0.2h-16L56,472.3H40V472.2z"/>
			<path class="st0" d="M40,472.3h16l428-224.2h16v0.2h-16L56,472.5H40V472.3z"/>
			<path class="st0" d="M40,472.5h16l428-181.1h16v0.1h-16c0,0-428,181.1-428,181.1L40,472.5L40,472.5z"/>
			<path class="st0" d="M40,480.5h16l428-119.7h16v0.1h-16c0,0-428,119.7-428,119.7L40,480.5L40,480.5z"/>
			<path class="st0" d="M40,480.6h16l428-100.9h16v0.1h-16L56,480.6L40,480.6L40,480.6z"/>
			<path class="st0" d="M40,480.6h16l428-33.5h16v2h-16L56,482.6H40V480.6z"/>
			<path class="st0" d="M40,482.6h16l428-3.2h16v17.1h-16l-428,3.2H40V482.6z"/>
			<path class="st0" d="M40,499.7h16l428,8.7h16v0.4h-16l-428-8.7H40V499.7z"/>
			<path class="st0" d="M40,500.1h16l428,75.5h16v0.4h-16c0,0-428-75.5-428-75.5H40V500.1z"/>
			<path class="st0" d="M40,500.5h16l428,128.4h16v0.1h-16L56,500.6L40,500.5L40,500.5z"/>
			<path class="st0" d="M40,500.6h16L484,97.1h16v0.1h-16L56,500.6L40,500.6L40,500.6z"/>
			<path class="st0" d="M40,500.6h16l428-376h16v0.3h-16c0,0-428,376-428,376H40V500.6z"/>
			<path class="st0" d="M40,500.9h16l428-344.3h16v0.3h-16L56,501.2H40V500.9z"/>
			<path class="st0" d="M40,501.2h16l428-296.8h16v0.1h-16L56,501.3L40,501.2L40,501.2z"/>
			<path class="st0" d="M40,501.3h16l428-209.9h16v0.1h-16L56,501.3L40,501.3L40,501.3z"/>
			<path class="st0" d="M40,509.3h16l428-148.5h16v0.1h-16L56,509.4L40,509.3L40,509.3z"/>
			<path class="st0" d="M40,509.4h16l428-60.2h16v0.5h-16L56,509.9H40V509.4z"/>
			<path class="st0" d="M40,509.9h16l428-13.4h16v0.5h-16L56,510.4H40V509.9z"/>
			<path class="st0" d="M40,510.4h16l428-1.5h16v20.6h-16c0,0-428,1.5-428,1.5H40V510.4z"/>
			<path class="st0" d="M40,531h16l428,45h16v0.3h-16c0,0-428-45-428-45H40V531z"/>
			<path class="st0" d="M40,531.2h16l428-406.3h16v0.1h-16L56,531.3L40,531.2L40,531.2z"/>
			<path class="st0" d="M40,531.3h16l428-326.8h16v0.1h-16L56,531.3L40,531.3L40,531.3z"/>
			<path class="st0" d="M40,531.3h16l428-239.9h16v0.1h-16c0,0-428,239.9-428,239.9L40,531.3L40,531.3z"/>
			<path class="st0" d="M40,539.4h16L484,32.6h16v0.1h-16L56,539.4L40,539.4L40,539.4z"/>
			<path class="st0" d="M40,539.4h16L484,57.5h16v0.1h-16L56,539.5L40,539.4L40,539.4z"/>
			<path class="st0" d="M40,539.5h16l428-178.6h16v0.2h-16L56,539.6H40V539.5z"/>
			<path class="st0" d="M40,539.6h16l428-90h16v0.6h-16l-428,90H40V539.6z"/>
			<path class="st0" d="M40,540.2h16L484,497h16v0.6h-16L56,540.8H40V540.2z"/>
			<path class="st0" d="M40,540.8h16l428-11.3h16v19.3h-16c0,0-428,11.3-428,11.3H40V540.8z"/>
			<path class="st0" d="M40,560.1h16l428,16.1h16v0.3h-16L56,560.4H40V560.1z"/>
			<path class="st0" d="M40,560.4h16l428-494h16v0.1h-16l-428,494L40,560.4L40,560.4z"/>
			<path class="st0" d="M40,560.4h16l428-403.6h16v0.1h-16L56,560.5L40,560.4L40,560.4z"/>
			<path class="st0" d="M40,560.5h16L484,185h16v0.1h-16L56,560.6H40V560.5z"/>
			<path class="st0" d="M40,560.6h16l428-356.1h16v0.3h-16L56,560.9H40V560.6z"/>
			<path class="st0" d="M40,560.9h16l428-312.6h16v0.1h-16L56,560.9L40,560.9L40,560.9z"/>
			<path class="st0" d="M40,560.9h16l428-269.4h16v0.1h-16L56,561L40,560.9L40,560.9z"/>
			<path class="st0" d="M40,53.6h16l428-21h16v0.1h-16c0,0-428,21-428,21H40V53.6z"/>
			<path class="st0" d="M40,53.7h16l428,270.5h16v0.1h-16L56,53.8L40,53.7L40,53.7z"/>
			<path class="st0" d="M40,53.8h16L484,361h16v0.1h-16L56,53.9H40V53.8z"/>
			<path class="st0" d="M40,53.9h16l428,396.3h16v0.1h-16L56,53.9L40,53.9L40,53.9z"/>
			<path class="st0" d="M40,53.9h16l428,494.8h16v0.1h-16L56,54L40,53.9L40,53.9z"/>
			<path class="st0" d="M40,54h16l428,522.5h16v0.2h-16L56,54.1H40V54z"/>
			<path class="st0" d="M40,54.1h16l428,12.3h16v21.4h-16L56,75.5H40V54.1z"/>
			<path class="st0" d="M40,75.5h16l428,21.7h16v0.2h-16c0,0-428-21.7-428-21.7H40V75.5z"/>
			<path class="st0" d="M40,75.7h16l428,129.1h16v0.1h-16c0,0-428-129.1-428-129.1H40V75.7z"/>
			<path class="st0" d="M40,569h16l428-244.7h16v1.4h-16c0,0-428,244.7-428,244.7H40V569z"/>
			<path class="st0" d="M40,570.4h16l428-209.2h16v0.3h-16L56,570.7H40V570.4z"/>
			<path class="st0" d="M40,18.7h16l428,22.8h16v2.8h-16L56,21.5H40V18.7z"/>
			<path class="st0" d="M40,577.5h16l428-0.8h16v0.3h-16l-428,0.8H40V577.5z"/>
			<path class="st0" d="M40,577.7h16L484,629h16v0.1h-16c0,0-428-51.2-428-51.2L40,577.7L40,577.7z"/>
			<path class="st0" d="M40,577.8h16l428-329.5h16v0.3h-16L56,578.1H40V577.8z"/>
			<path class="st0" d="M40,578.1h16l428-286.6h16v0.1h-16c0,0-428,286.6-428,286.6L40,578.1L40,578.1z"/>
			<path class="st0" d="M40,586.1h16L484,32.7h16v0.1h-16L56,586.2L40,586.1L40,586.1z"/>
			<path class="st0" d="M40,586.2h16l428-260.5h16v0.4h-16c0,0-428,260.5-428,260.5H40V586.2z"/>
			<path class="st0" d="M40,586.6h16l428-225.1h16v0.5h-16L56,587.1H40V586.6z"/>
			<path class="st0" d="M40,587.1h16l428-136.9h16v0.5h-16c0,0-428,136.9-428,136.9H40V587.1z"/>
			<path class="st0" d="M40,587.5h16l428-89.9h16v0.3h-16L56,587.8H40V587.5z"/>
			<path class="st0" d="M40,587.8h16l428-39h16v0.4h-16c0,0-428,39-428,39H40V587.8z"/>
			<path class="st0" d="M40,588.1h16l428-22.4h16v0.2h-16L56,588.3H40V588.1z"/>
			<path class="st0" d="M40,588.3h16l428-11.4h16v42.2h-16L56,630.5H40V588.3z"/>
			<path class="st0" d="M40,630.5h16l428-1.5h16v0.3h-16l-428,1.5H40V630.5z"/>
			<path class="st0" d="M40,630.8h16L484,87.7h16v0.1h-16L56,630.9L40,630.8L40,630.8z"/>
			<path class="st0" d="M40,630.9h16L484,125h16v0.1h-16L56,630.9L40,630.9L40,630.9z"/>
			<path class="st0" d="M40,630.9h16l428-474h16v0.2h-16l-428,474H40V630.9z"/>
			<path class="st0" d="M40,631.1h16l428-446.1h16v0.4h-16c0,0-428,446.1-428,446.1H40V631.1z"/>
			<path class="st0" d="M40,631.5h16l428-426.6h16v0.1h-16L56,631.5L40,631.5L40,631.5z"/>
			<path class="st0" d="M40,631.5h16l428-382.9h16v0.4h-16C484,249,56,632,56,632H40V631.5z"/>
			<path class="st0" d="M40,632h16l428-340.4h16v0.2h-16c0,0-428,340.4-428,340.4H40V632z"/>
			<path class="st0" d="M40,640.2h16l428-314.1h16v0.1h-16L56,640.3H40V640.2z"/>
			<path class="st0" d="M40,640.3h16l428-278.3h16v0.1h-16L56,640.4H40V640.3z"/>
			<path class="st0" d="M40,640.4h16l428-260.6h16v0.4h-16L56,640.8H40V640.4z"/>
			<path class="st0" d="M40,640.8h16l428-190.1h16v0.1h-16L56,640.8L40,640.8L40,640.8z"/>
			<path class="st0" d="M40,640.8h16l428-142.9h16v0.1h-16L56,640.9L40,640.8L40,640.8z"/>
			<path class="st0" d="M40,640.9h16l428-91.7h16v0.1h-16c0,0-428,91.7-428,91.7H40V640.9z"/>
			<path class="st0" d="M40,641h16l428-75h16v0.2h-16l-428,75H40V641z"/>
			<path class="st0" d="M40,641.2h16l428-22.1h16v0.6h-16c0,0-428,22.1-428,22.1H40V641.2z"/>
			<path class="st0" d="M40,641.7h16l428-12.4h16v17.6h-16L56,659.3H40V641.7z"/>
			<path class="st0" d="M40,659.3h16L484,87.8h16v0.1h-16c0,0-428,571.5-428,571.5H40V659.3z"/>
			<path class="st0" d="M40,659.4h16l428-562h16v0.2h-16l-428,562H40V659.4z"/>
			<path class="st0" d="M40,659.6h16l428-474.2h16v0.1h-16L56,659.6L40,659.6L40,659.6z"/>
			<path class="st0" d="M40,659.6h16l428-454.7h16v0.2h-16L56,659.8H40V659.6z"/>
			<path class="st0" d="M40,659.8h16L484,249h16v0.1h-16L56,659.9H40V659.8z"/>
			<path class="st0" d="M40,659.9h16l428-368.1h16v0.1h-16L56,660H40V659.9z"/>
			<path class="st0" d="M40,83.8h16l428-51h16v0.6h-16l-428,51H40V83.8z"/>
			<path class="st0" d="M40,84.3h16l428-26.8h16v0.4h-16L56,84.8H40V84.3z"/>
			<path class="st0" d="M40,84.8h16l428,295.4h16v0.3h-16L56,85H40V84.8z"/>
			<path class="st0" d="M40,85h16l428,306.3h16v0.3h-16L56,85.3H40V85z"/>
			<path class="st0" d="M40,85.3h16l428,561.6h16v0.3h-16L56,85.6H40V85.3z"/>
			<path class="st0" d="M40,85.6h16l428,11.9h16v18.3h-16L56,103.9H40V85.6z"/>
			<path class="st0" d="M40,103.9h16l428,101.1h16v0.1h-16L56,104H40V103.9z"/>
			<path class="st0" d="M40,104h16l428,145.1h16v0.1h-16L56,104.1L40,104L40,104z"/>
			<path class="st0" d="M40,104.1h16l428,187.8h16v0.7h-16L56,104.8H40V104.1z"/>
			<path class="st0" d="M40,112.8h16L484,362h16v0.1h-16L56,112.9H40V112.8z"/>
			<path class="st0" d="M40,112.9h16l428,337.8h16v0.5h-16L56,113.4H40V112.9z"/>
			<path class="st0" d="M40,113.4h16l428,384.6h16v0.1h-16c0,0-428-384.6-428-384.6L40,113.4L40,113.4z"/>
			<path class="st0" d="M40,113.4h16l428,435.9h16v0.4h-16L56,113.8H40V113.4z"/>
			<path class="st0" d="M40,113.8h16l428,452.3h16v0.1h-16L56,113.9L40,113.8L40,113.8z"/>
			<path class="st0" d="M40,113.9h16l428,505.8h16v0.1h-16c0,0-428-505.8-428-505.8H40V113.9z"/>
			<path class="st0" d="M40,114h16l428,1.9h16v0.1h-16L56,114L40,114L40,114z"/>
			<path class="st0" d="M40,114h16l428,11h16v21.3h-16l-428-11H40V114z"/>
			<path class="st0" d="M40,135.3h16l428,21.9h16v1.5h-16L56,136.7H40V135.3z"/>
			<path class="st0" d="M40,136.7h16l428,68.5h16v0.1h-16L56,136.8L40,136.7L40,136.7z"/>
			<path class="st0" d="M40,144.8h16L484,33.3h16v0.1h-16c0,0-428,111.5-428,111.5L40,144.8L40,144.8z"/>
			<path class="st0" d="M40,144.8h16l428,306.4h16v0.4h-16L56,145.2H40V144.8z"/>
			<path class="st0" d="M40,145.2h16L484,498h16v0.3h-16L56,145.5H40V145.2z"/>
			<path class="st0" d="M40,145.5h16l428,404.2h16v0.5h-16L56,146H40V145.5z"/>
			<path class="st0" d="M40,146h16l428,473.8h16v0.1h-16L56,146.1H40V146z"/>
			<path class="st0" d="M40,146.1h16l428,501.1h16v0.1h-16c0,0-428-501.1-428-501.1H40V146.1z"/>
			<path class="st0" d="M40,146.2h16l428-58.3h16v0.1h-16L56,146.2L40,146.2L40,146.2z"/>
			<path class="st0" d="M40,146.2h16l428-30.3h16v0.1h-16L56,146.3H40V146.2z"/>
			<path class="st0" d="M40,146.3h16l428-0.1h16v1.5h-16l-428,0.1H40V146.3z"/>
			<path class="st0" d="M40,147.8h16l428,10.8h16v18.1h-16L56,165.9H40V147.8z"/>
			<path class="st0" d="M40,165.9h16l428,39.3h16v0.2h-16L56,166.1H40V165.9z"/>
			<path class="st0" d="M40,174.1h16l428,188.1h16v0.2h-16L56,174.2H40V174.1z"/>
			<path class="st0" d="M40,174.2h16l428,277.3h16v0.2h-16c0,0-428-277.3-428-277.3H40V174.2z"/>
			<path class="st0" d="M40,174.4h16l428,323.8h16v0.1h-16L56,174.5H40V174.4z"/>
			<path class="st0" d="M40,174.5h16l428,375.7h16v0.1h-16c0,0-428-375.7-428-375.7H40V174.5z"/>
			<path class="st0" d="M40,174.6h16l428,391.6h16v0.1h-16L56,174.7H40V174.6z"/>
			<path class="st0" d="M40,174.7h16l428,445.2h16v0.2h-16L56,174.9H40V174.7z"/>
			<path class="st0" d="M40,174.9h16l428-86.9h16V88h-16L56,175H40V174.9z"/>
			<path class="st0" d="M40,175h16l428,1.7h16v0.1h-16L56,175L40,175L40,175z"/>
			<path class="st0" d="M40,175h16l428,10.4h16v10.7h-16L56,185.7H40V175z"/>
			<path class="st0" d="M40,185.7h16l428,19.6h16v0.5h-16L56,186.2H40V185.7z"/>
			<path class="st0" d="M40,186.2h16l428,62.9h16v0.1h-16L56,186.3H40V186.2z"/>
			<path class="st0" d="M40,194.3h16l428-161h16v0.1h-16l-428,161H40V194.3z"/>
			<path class="st0" d="M40,194.4h16l428,167.9h16v0.3h-16c0,0-428-167.9-428-167.9H40V194.4z"/>
			<path class="st0" d="M40,194.7h16l428,185.7h16v0.1h-16c0,0-428-185.7-428-185.7L40,194.7L40,194.7z"/>
			<path class="st0" d="M40,194.7h16l428,196.9h16v0.1h-16L56,194.8L40,194.7L40,194.7z"/>
			<path class="st0" d="M40,194.8h16l428,256.9h16v0.1h-16L56,194.8L40,194.8L40,194.8z"/>
			<path class="st0" d="M40,194.8h16l428,303.5h16v0.2h-16c0,0-428-303.5-428-303.5H40V194.8z"/>
			<path class="st0" d="M40,195h16l428,355.3h16v0.2h-16c0,0-428-355.3-428-355.3H40V195z"/>
			<path class="st0" d="M40,195.1h16l428,371.1h16v0.1h-16c0,0-428-371.1-428-371.1L40,195.1L40,195.1z"/>
			<path class="st0" d="M40,195.2h16l428,424.9h16v0.1h-16L56,195.3H40V195.2z"/>
			<path class="st0" d="M40,195.3h16l428,452h16v0.4h-16c0,0-428-452-428-452H40V195.3z"/>
			<path class="st0" d="M40,195.6h16L484,88h16v0.2h-16L56,195.8H40V195.6z"/>
			<path class="st0" d="M40,195.8h16l428-48.1h16v0.1h-16L56,195.8L40,195.8L40,195.8z"/>
			<path class="st0" d="M40,195.8h16l428-19.1h16v0.1h-16L56,195.9L40,195.8L40,195.8z"/>
			<path class="st0" d="M40,195.9h16l428,0.3h16v0.1h-16l-428-0.3L40,195.9L40,195.9z"/>
			<path class="st0" d="M40,195.9h16l428,9.9h16v32.7h-16l-428-9.9H40V195.9z"/>
			<path class="st0" d="M40,228.6h16l428,20.7h16v0.3h-16L56,228.9H40V228.6z"/>
			<path class="st0" d="M40,228.9h16l428,63.6h16v0.2h-16L56,229.1H40V228.9z"/>
			<path class="st0" d="M40,237.1h16l428,89.1h16v0.1h-16L56,237.2H40V237.1z"/>
			<path class="st0" d="M40,237.2h16l428,125.4h16v1.5h-16c0,0-428-125.4-428-125.4H40V237.2z"/>
			<path class="st0" d="M40,238.6h16l428,141.8h16v0.3h-16L56,238.9H40V238.6z"/>
			<path class="st0" d="M40,238.9h16l428,212.9h16v0.2h-16L56,239H40V238.9z"/>
			<path class="st0" d="M40,239h16l428,259.4h16v0.1h-16L56,239.1L40,239L40,239z"/>
			<path class="st0" d="M40,239.1h16l428,327.3h16v0.1h-16L56,239.2H40V239.1z"/>
			<path class="st0" d="M40,239.2h16l428,381h16v0.3h-16c0,0-428-381-428-381H40V239.2z"/>
			<path class="st0" d="M40,239.5h16l428,408.2h16v0.2h-16L56,239.6H40V239.5z"/>
			<path class="st0" d="M40,239.6h16l428-91.9h16v0.2h-16L56,239.8H40V239.6z"/>
			<path class="st0" d="M40,239.8h16l428-1.2h16v0.1h-16l-428,1.2H40V239.8z"/>
			<path class="st0" d="M40,239.9h16l428,9.7h16v31h-16l-428-9.7H40V239.9z"/>
			<path class="st0" d="M40,270.9h16l428,21.9h16v2.9h-16c0,0-428-21.9-428-21.9H40V270.9z"/>
			<path class="st0" d="M40,281.8h16L484,33.5h16v0.1h-16L56,281.8L40,281.8L40,281.8z"/>
			<path class="st0" d="M40,281.8h16l428,44.5h16v0.1h-16L56,281.9H40V281.8z"/>
			<path class="st0" d="M40,281.9h16L484,364h16v0.8h-16L56,282.7H40V281.9z"/>
			<path class="st0" d="M40,282.7h16l428,109h16v0.1h-16c0,0-428-109-428-109L40,282.7L40,282.7z"/>
			<path class="st0" d="M40,282.8h16l428,169.1h16v0.1h-16c0,0-428-169.1-428-169.1L40,282.8L40,282.8z"/>
			<path class="st0" d="M40,282.8h16l428,267.6h16v0.1h-16c0,0-428-267.6-428-267.6H40V282.8z"/>
			<path class="st0" d="M40,282.9h16l428,283.5h16v0.1h-16L56,283L40,282.9L40,282.9z"/>
			<path class="st0" d="M40,283h16l428,337.5h16v0.1h-16L56,283L40,283L40,283z"/>
			<path class="st0" d="M40,283h16l428,364.8h16v0.2h-16L56,283.2H40V283z"/>
			<path class="st0" d="M40,283.2h16L484,116h16v0.1h-16L56,283.3L40,283.2L40,283.2z"/>
			<path class="st0" d="M40,283.3h16l428-135.4h16v0.1h-16L56,283.3L40,283.3L40,283.3z"/>
			<path class="st0" d="M40,283.3h16l428-106.5h16v0.1h-16L56,283.4L40,283.3L40,283.3z"/>
			<path class="st0" d="M40,283.4h16l428-2.8h16v2h-16c0,0-428,2.8-428,2.8H40V283.4z"/>
			<path class="st0" d="M40,285.3h16l428,10.3h16v11.6h-16c0,0-428-10.3-428-10.3H40V285.3z"/>
		</g>
		<g>
			<g transform="translate(40, 0)">
				<g transform="translate(0, 0)">
					<rect y="0" pointer-events="none" class="st1" width="16" height="22"/>
					<rect y="0" class="st2" width="16" height="22"/>
					<text pointer-events="none" transform="matrix(1 0 0 1 -11.2305 11.0022)" class="st3 st4 st5">b</text>
					<rect x="-45.9" y="299.7" class="st6" width="14.5" height="49.9"/>
					<text transform="matrix(1 0 0 1 -35.1107 299.6958)" class="st7 st8 st9">晚清聲母</text>
				</g>
				<g transform="translate(0, 30.004556752278376)">
					<rect y="0" pointer-events="none" class="st1" width="16" height="15.6"/>
					<rect y="0" class="st2" width="16" height="15.6"/>
					<text pointer-events="none" transform="matrix(1 0 0 1 -11.2305 7.8193)" class="st3 st4 st5">p</text>
				</g>
				<g transform="translate(0, 53.64333057166529)">
					<rect y="0" pointer-events="none" class="st1" width="16" height="22.2"/>
					<rect y="0" class="st2" width="16" height="22.2"/>
					<text pointer-events="none" transform="matrix(1 0 0 1 -14.7266 11.0775)" class="st3 st4 st5">m</text>
				</g>
				<g transform="translate(0, 83.79826014913007)">
					<rect y="0" pointer-events="none" class="st1" width="16" height="21"/>
					<rect y="0" class="st2" width="16" height="21"/>
					<text pointer-events="none" transform="matrix(1 0 0 1 -8.5156 10.501)" class="st3 st4 st5">f</text>
				</g>
				<g transform="translate(0, 112.8003314001657)">
					<rect y="0" pointer-events="none" class="st1" width="16" height="24"/>
					<rect y="0" class="st2" width="16" height="24"/>
					<text pointer-events="none" transform="matrix(1 0 0 1 -11.2305 11.9797)" class="st3 st4 st5">d</text>
				</g>
				<g transform="translate(0, 144.75973487986744)">
					<rect y="0" pointer-events="none" class="st1" width="16" height="21.3"/>
					<rect y="0" class="st2" width="16" height="21.3"/>
					<text pointer-events="none" transform="matrix(1 0 0 1 -8.9404 10.6514)" class="st3 st4 st5">t</text>
				</g>
				<g transform="translate(0, 174.06255178127589)">
					<rect y="0" pointer-events="none" class="st1" width="16" height="12.3"/>
					<rect y="0" class="st2" width="16" height="12.3"/>
					<text pointer-events="none" transform="matrix(1 0 0 1 -11.3281 6.1402)" class="st3 st4 st5">n</text>
				</g>
				<g transform="translate(0, 194.34299917149957)">
					<rect y="0" pointer-events="none" class="st1" width="16" height="34.7"/>
					<rect y="0" class="st2" width="16" height="34.7"/>
					<text pointer-events="none" transform="matrix(1 0 0 1 -7.7441 17.368)" class="st3 st4 st5">l</text>
				</g>
				<g transform="translate(0, 237.07912178956087)">
					<rect y="0" pointer-events="none" class="st1" width="16" height="36.7"/>
					<rect y="0" class="st2" width="16" height="36.7"/>
					<text pointer-events="none" transform="matrix(1 0 0 1 -11.2305 18.3455)" class="st3 st4 st5">g</text>
				</g>
				<g transform="translate(0, 281.77009113504556)">
					<rect y="0" pointer-events="none" class="st1" width="16" height="15.2"/>
					<rect y="0" class="st2" width="16" height="15.2"/>
					<text pointer-events="none" transform="matrix(1 0 0 1 -10.918 7.5938)" class="st3 st4 st5">k</text>
				</g>
				<g transform="translate(0, 304.9577464788732)">
					<rect y="0" pointer-events="none" class="st1" width="16" height="10.2"/>
					<rect y="0" class="st2" width="16" height="10.2"/>
					<text pointer-events="none" transform="matrix(1 0 0 1 -17.5586 5.1127)" class="st3 st4 st5">ng</text>
				</g>
				<g transform="translate(0, 323.18309859154925)">
					<rect y="0" pointer-events="none" class="st1" width="16" height="28.6"/>
					<rect y="0" class="st2" width="16" height="28.6"/>
					<text pointer-events="none" transform="matrix(1 0 0 1 -11.3281 14.2854)" class="st3 st4 st5">h</text>
				</g>
				<g transform="translate(0, 359.75393537696766)">
					<rect y="0" pointer-events="none" class="st1" width="16" height="8.4"/>
					<rect y="0" class="st2" width="16" height="8.4"/>
					<text pointer-events="none" transform="matrix(1 0 0 1 -19.4141 4.2104)" class="st3 st4 st5">gw</text>
				</g>
				<g transform="translate(0, 376.1748135874068)">
					<rect y="0" pointer-events="none" class="st1" width="16" height="2.3"/>
					<rect y="0" class="st2" width="16" height="2.3"/>
					<text pointer-events="none" transform="matrix(1 0 0 1 -19.1016 1.1528)" class="st3 st4 st5">kw</text>
				</g>
				<g transform="translate(0, 386.4805302402651)">
					<rect y="0" pointer-events="none" class="st1" width="16" height="22.4"/>
					<rect y="0" class="st2" width="16" height="22.4"/>
					<text pointer-events="none" transform="matrix(1 0 0 1 -10.2539 11.2028)" class="st3 st4 st5">z</text>
				</g>
				<g transform="translate(0, 416.8860811930406)">
					<rect y="0" pointer-events="none" class="st1" width="16" height="28.2"/>
					<rect y="0" class="st2" width="16" height="28.2"/>
					<text pointer-events="none" transform="matrix(1 0 0 1 -16.582 14.11)" class="st3 st4 st5">zh</text>
				</g>
				<g transform="translate(0, 453.106048053024)">
					<rect y="0" pointer-events="none" class="st1" width="16" height="19.4"/>
					<rect y="0" class="st2" width="16" height="19.4"/>
					<text pointer-events="none" transform="matrix(1 0 0 1 -10.21 9.699)" class="st3 st4 st5">c</text>
				</g>
				<g transform="translate(0, 480.5041425020712)">
					<rect y="0" pointer-events="none" class="st1" width="16" height="20.8"/>
					<rect y="0" class="st2" width="16" height="20.8"/>
					<text pointer-events="none" transform="matrix(1 0 0 1 -16.5381 10.4008)" class="st3 st4 st5">ch</text>
				</g>
				<g transform="translate(0, 509.3057166528583)">
					<rect y="0" pointer-events="none" class="st1" width="16" height="22.1"/>
					<rect y="0" class="st2" width="16" height="22.1"/>
					<text pointer-events="none" transform="matrix(1 0 0 1 -10.21 11.0273)" class="st3 st4 st5">s</text>
				</g>
				<g transform="translate(0, 539.3603976801988)">
					<rect y="0" pointer-events="none" class="st1" width="16" height="21.6"/>
					<rect y="0" class="st2" width="16" height="21.6"/>
					<text pointer-events="none" transform="matrix(1 0 0 1 -16.5381 10.8018)" class="st3 st4 st5">sh</text>
				</g>
				<g transform="translate(0, 568.9639602319801)">
					<rect y="0" pointer-events="none" class="st1" width="16" height="9.2"/>
					<rect y="0" class="st2" width="16" height="9.2"/>
					<text pointer-events="none" transform="matrix(1 0 0 1 -11.0693 4.5864)" class="st3 st4 st5">ø</text>
				</g>
				<g transform="translate(0, 586.1367025683512)">
					<rect y="0" pointer-events="none" class="st1" width="16" height="46"/>
					<rect y="0" class="st2" width="16" height="46"/>
					<text pointer-events="none" transform="matrix(1 0 0 1 -8.4424 23.007)" class="st3 st4 st5">j</text>
				</g>
				<g transform="translate(0, 640.1507870753935)">
					<rect y="0" pointer-events="none" class="st1" width="16" height="19.8"/>
					<rect y="0" class="st2" width="16" height="19.8"/>
					<text pointer-events="none" transform="matrix(1 0 0 1 -13.1836 9.9246)" class="st3 st4 st5">w</text>
				</g>
			</g>
			<g transform="translate(484, 0)">
				<g transform="translate(0, 12)">
					<rect y="0" pointer-events="none" class="st1" width="16" height="21.5"/>
					<rect y="0" class="st10" width="16" height="21.5"/>
					<text pointer-events="none" transform="matrix(1 0 0 1 21 10.7516)" class="st3 st4 st5">b</text>
					<rect x="43.1" y="293.8" class="st6" width="21.3" height="60.2"/>
					<text transform="matrix(1 0 0 1 60.7607 293.7748)" class="st7 st8 st9">當代聲母</text>
				</g>
				<g transform="translate(0, 41.503314001657)">
					<rect y="0" pointer-events="none" class="st1" width="16" height="16.4"/>
					<rect y="0" class="st10" width="16" height="16.4"/>
					<text pointer-events="none" transform="matrix(1 0 0 1 21 8.2204)" class="st3 st4 st5">p</text>
				</g>
				<g transform="translate(0, 65.94407622203812)">
					<rect y="0" pointer-events="none" class="st1" width="16" height="22.3"/>
					<rect y="0" class="st10" width="16" height="22.3"/>
					<text pointer-events="none" transform="matrix(1 0 0 1 21 11.1276)" class="st3 st4 st5">m</text>
				</g>
				<g transform="translate(0, 96.19925434962718)">
					<rect y="0" pointer-events="none" class="st1" width="16" height="19.9"/>
					<rect y="0" class="st10" width="16" height="19.9"/>
					<text pointer-events="none" transform="matrix(1 0 0 1 21 9.9497)" class="st3 st4 st5">f</text>
				</g>
				<g transform="translate(0, 124.09859154929578)">
					<rect y="0" pointer-events="none" class="st1" width="16" height="23.9"/>
					<rect y="0" class="st10" width="16" height="23.9"/>
					<text pointer-events="none" transform="matrix(1 0 0 1 21 11.9296)" class="st3 st4 st5">d</text>
				</g>
				<g transform="translate(0, 155.95774647887325)">
					<rect y="0" pointer-events="none" class="st1" width="16" height="20.9"/>
					<rect y="0" class="st10" width="16" height="20.9"/>
					<text pointer-events="none" transform="matrix(1 0 0 1 21 10.4509)" class="st3 st4 st5">t</text>
				</g>
				<g transform="translate(0, 184.8595691797846)">
					<rect y="0" pointer-events="none" class="st1" width="16" height="11.4"/>
					<rect y="0" class="st10" width="16" height="11.4"/>
					<text pointer-events="none" transform="matrix(1 0 0 1 21 5.6891)" class="st3 st4 st5">n</text>
				</g>
				<g transform="translate(0, 204.23777961888982)">
					<rect y="0" pointer-events="none" class="st1" width="16" height="34.4"/>
					<rect y="0" class="st10" width="16" height="34.4"/>
					<text pointer-events="none" transform="matrix(1 0 0 1 21 17.2177)" class="st3 st4 st5">l</text>
				</g>
				<g transform="translate(0, 246.6731565865783)">
					<rect y="0" pointer-events="none" class="st1" width="16" height="35.8"/>
					<rect y="0" class="st10" width="16" height="35.8"/>
					<text pointer-events="none" transform="matrix(1 0 0 1 21 17.9194)" class="st3 st4 st5">g</text>
				</g>
				<g transform="translate(0, 290.51201325600664)">
					<rect y="0" pointer-events="none" class="st1" width="16" height="16.7"/>
					<rect y="0" class="st10" width="16" height="16.7"/>
					<text pointer-events="none" transform="matrix(1 0 0 1 21 8.3707)" class="st3 st4 st5">k</text>
				</g>
				<g transform="translate(0, 315.2535211267606)">
					<rect y="0" pointer-events="none" class="st1" width="16" height="11.1"/>
					<rect y="0" class="st10" width="16" height="11.1"/>
					<text pointer-events="none" transform="matrix(1 0 0 1 21 5.5638)" class="st3 st4 st5">ng</text>
				</g>
				<g transform="translate(0, 334.3811101905551)">
					<rect y="0" pointer-events="none" class="st1" width="16" height="30.4"/>
					<rect y="0" class="st10" width="16" height="30.4"/>
					<text pointer-events="none" transform="matrix(1 0 0 1 21 15.2127)" class="st3 st4 st5">h</text>
				</g>
				<g transform="translate(0, 372.80654515327257)">
					<rect y="0" pointer-events="none" class="st1" width="16" height="7.9"/>
					<rect y="0" class="st10" width="16" height="7.9"/>
					<text pointer-events="none" transform="matrix(1 0 0 1 21 3.9347)" class="st3 st4 st5">gw</text>
				</g>
				<g transform="translate(0, 388.67605633802816)">
					<rect y="0" pointer-events="none" class="st1" width="16" height="3.1"/>
					<rect y="0" class="st10" width="16" height="3.1"/>
					<text pointer-events="none" transform="matrix(1 0 0 1 21 1.5288)" class="st3 st4 st5">kw</text>
				</g>
				<g transform="translate(0, 399.73363711681856)">
					<rect y="0" pointer-events="none" class="st1" width="16" height="52.2"/>
					<rect y="0" class="st10" width="16" height="52.2"/>
					<text pointer-events="none" transform="matrix(1 0 0 1 21 26.1147)" class="st3 st4 st5">z</text>
				</g>
				<g transform="translate(0, 459.96313173156585)">
					<rect y="0" pointer-events="none" class="st1" width="16" height="38.5"/>
					<rect y="0" class="st10" width="16" height="38.5"/>
					<text pointer-events="none" transform="matrix(1 0 0 1 21 19.2728)" class="st3 st4 st5">c</text>
				</g>
				<g transform="translate(0, 506.5086992543496)">
					<rect y="0" pointer-events="none" class="st1" width="16" height="44"/>
					<rect y="0" class="st10" width="16" height="44"/>
					<text pointer-events="none" transform="matrix(1 0 0 1 21 22.0045)" class="st3 st4 st5">s</text>
				</g>
				<g transform="translate(0, 558.5178127589063)">
					<rect y="0" pointer-events="none" class="st1" width="16" height="8"/>
					<rect y="0" class="st10" width="16" height="8"/>
					<text pointer-events="none" transform="matrix(1 0 0 1 21 3.9849)" class="st3 st4 st5">ø</text>
				</g>
				<g transform="translate(0, 574.4875724937862)">
					<rect y="0" pointer-events="none" class="st1" width="16" height="46"/>
					<rect y="0" class="st10" width="16" height="46"/>
					<text pointer-events="none" transform="matrix(1 0 0 1 21 23.007)" class="st3 st4 st5">j</text>
				</g>
				<g transform="translate(0, 628.5016570008285)">
					<rect y="0" pointer-events="none" class="st1" width="16" height="19.5"/>
					<rect y="0" class="st10" width="16" height="19.5"/>
					<text pointer-events="none" transform="matrix(1 0 0 1 21 9.7492)" class="st3 st4 st5">w</text>
				</g>
			</g>
		</g>
	</g>
</g>
</svg>
