<?xml version="1.0" encoding="utf-8"?>
<!-- Generator: Adobe Illustrator 23.0.1, SVG Export Plug-In . SVG Version: 6.00 Build 0)  -->
<svg version="1.1" id="Layer_1" xmlns="http://www.w3.org/2000/svg" xmlns:xlink="http://www.w3.org/1999/xlink" x="0px" y="0px"
	 viewBox="0 0 1268 600" style="enable-background:new 0 0 1268 600;" xml:space="preserve">
<style type="text/css">
	.st0{fill-opacity:0;}
	.st1{clip-path:url(#SVGID_2_);}
	.st2{stroke:#FFFFFF;}
	.st3{fill:none;}
	.st4{fill:#2A3F5F;}
	.st5{font-family:'Verdana';}
	.st6{font-size:12px;}
	.st7{fill:url(#SVGID_3_);}
	.st8{font-family:'HanmiunLeisjo-Regular';}
	.st9{font-size:17px;}
	.st10{font-size:14px;}
	.st11{font-size:14px;glyph-orientation-vertical:0;writing-mode:tb;}
</style>
<rect y="0" class="st0" width="1268" height="600"/>
<g>
	<rect x="80" y="100" class="st0" width="1085" height="420"/>
</g>
<g>
	<g>
		<g>
			<defs>
				<rect id="SVGID_1_" x="80" y="100" width="1085" height="420"/>
			</defs>
			<clipPath id="SVGID_2_">
				<use xlink:href="#SVGID_1_"  style="overflow:visible;"/>
			</clipPath>
			<g transform="translate(80, 100)" class="st1">
				<g>
					<g>
						
							<image style="overflow:visible;enable-background:new    ;" width="1085" height="420" xlink:href="52B0AD7A8A32DA71.png"  transform="matrix(1 0 0 1 0 -1.464844e-05)">
						</image>
					</g>
				</g>
			</g>
		</g>
		<path class="st2" d="M0,0"/>
		<path class="st2" d="M0,0"/>
		<path class="st3" d="M0,0"/>
		<path class="st3" d="M0,0"/>
		<g>
			<g>
				<text transform="matrix(6.123234e-17 1 -1 6.123234e-17 85.75 527)" class="st4 st5 st6">aa</text>
			</g>
			<g>
				<text transform="matrix(6.123234e-17 1 -1 6.123234e-17 103.25 527)" class="st4 st5 st6">aai</text>
			</g>
			<g>
				<text transform="matrix(6.123234e-17 1 -1 6.123234e-17 120.75 527)" class="st4 st5 st6">aak</text>
			</g>
			<g>
				<text transform="matrix(6.123234e-17 1 -1 6.123234e-17 138.25 527)" class="st4 st5 st6">aam</text>
			</g>
			<g>
				<text transform="matrix(6.123234e-17 1 -1 6.123234e-17 155.75 527)" class="st4 st5 st6">aan</text>
			</g>
			<g>
				<text transform="matrix(6.123234e-17 1 -1 6.123234e-17 173.25 527)" class="st4 st5 st6">aang</text>
			</g>
			<g>
				<text transform="matrix(6.123234e-17 1 -1 6.123234e-17 190.75 527)" class="st4 st5 st6">aap</text>
			</g>
			<g>
				<text transform="matrix(6.123234e-17 1 -1 6.123234e-17 208.25 527)" class="st4 st5 st6">aat</text>
			</g>
			<g>
				<text transform="matrix(6.123234e-17 1 -1 6.123234e-17 225.75 527)" class="st4 st5 st6">aau</text>
			</g>
			<g>
				<text transform="matrix(6.123234e-17 1 -1 6.123234e-17 243.25 527)" class="st4 st5 st6">ai</text>
			</g>
			<g>
				<text transform="matrix(6.123234e-17 1 -1 6.123234e-17 260.75 527)" class="st4 st5 st6">ak</text>
			</g>
			<g>
				<text transform="matrix(6.123234e-17 1 -1 6.123234e-17 278.25 527)" class="st4 st5 st6">am</text>
			</g>
			<g>
				<text transform="matrix(6.123234e-17 1 -1 6.123234e-17 295.75 527)" class="st4 st5 st6">an</text>
			</g>
			<g>
				<text transform="matrix(6.123234e-17 1 -1 6.123234e-17 313.25 527)" class="st4 st5 st6">ang</text>
			</g>
			<g>
				<text transform="matrix(6.123234e-17 1 -1 6.123234e-17 330.75 527)" class="st4 st5 st6">ap</text>
			</g>
			<g>
				<text transform="matrix(6.123234e-17 1 -1 6.123234e-17 348.25 527)" class="st4 st5 st6">at</text>
			</g>
			<g>
				<text transform="matrix(6.123234e-17 1 -1 6.123234e-17 365.75 527)" class="st4 st5 st6">au</text>
			</g>
			<g>
				<text transform="matrix(6.123234e-17 1 -1 6.123234e-17 383.25 527)" class="st4 st5 st6">e</text>
			</g>
			<g>
				<text transform="matrix(6.123234e-17 1 -1 6.123234e-17 400.75 527)" class="st4 st5 st6">ei</text>
			</g>
			<g>
				<text transform="matrix(6.123234e-17 1 -1 6.123234e-17 418.25 527)" class="st4 st5 st6">ek</text>
			</g>
			<g>
				<text transform="matrix(6.123234e-17 1 -1 6.123234e-17 435.75 527)" class="st4 st5 st6">em</text>
			</g>
			<g>
				<text transform="matrix(6.123234e-17 1 -1 6.123234e-17 453.25 527)" class="st4 st5 st6">en</text>
			</g>
			<g>
				<text transform="matrix(6.123234e-17 1 -1 6.123234e-17 470.75 527)" class="st4 st5 st6">eng</text>
			</g>
			<g>
				<text transform="matrix(6.123234e-17 1 -1 6.123234e-17 488.25 527)" class="st4 st5 st6">eoi</text>
			</g>
			<g>
				<text transform="matrix(6.123234e-17 1 -1 6.123234e-17 505.75 527)" class="st4 st5 st6">eon</text>
			</g>
			<g>
				<text transform="matrix(6.123234e-17 1 -1 6.123234e-17 523.25 527)" class="st4 st5 st6">eot</text>
			</g>
			<g>
				<text transform="matrix(6.123234e-17 1 -1 6.123234e-17 540.75 527)" class="st4 st5 st6">ep</text>
			</g>
			<g>
				<text transform="matrix(6.123234e-17 1 -1 6.123234e-17 558.25 527)" class="st4 st5 st6">et</text>
			</g>
			<g>
				<text transform="matrix(6.123234e-17 1 -1 6.123234e-17 575.75 527)" class="st4 st5 st6">eu</text>
			</g>
			<g>
				<text transform="matrix(6.123234e-17 1 -1 6.123234e-17 593.25 527)" class="st4 st5 st6">i</text>
			</g>
			<g>
				<text transform="matrix(6.123234e-17 1 -1 6.123234e-17 610.75 527)" class="st4 st5 st6">ik</text>
			</g>
			<g>
				<text transform="matrix(6.123234e-17 1 -1 6.123234e-17 628.25 527)" class="st4 st5 st6">im</text>
			</g>
			<g>
				<text transform="matrix(6.123234e-17 1 -1 6.123234e-17 645.75 527)" class="st4 st5 st6">in</text>
			</g>
			<g>
				<text transform="matrix(6.123234e-17 1 -1 6.123234e-17 663.25 527)" class="st4 st5 st6">ing</text>
			</g>
			<g>
				<text transform="matrix(6.123234e-17 1 -1 6.123234e-17 680.75 527)" class="st4 st5 st6">ip</text>
			</g>
			<g>
				<text transform="matrix(6.123234e-17 1 -1 6.123234e-17 698.25 527)" class="st4 st5 st6">it</text>
			</g>
			<g>
				<text transform="matrix(6.123234e-17 1 -1 6.123234e-17 715.75 527)" class="st4 st5 st6">iu</text>
			</g>
			<g>
				<text transform="matrix(6.123234e-17 1 -1 6.123234e-17 733.25 527)" class="st4 st5 st6">m</text>
			</g>
			<g>
				<text transform="matrix(6.123234e-17 1 -1 6.123234e-17 750.75 527)" class="st4 st5 st6">ng</text>
			</g>
			<g>
				<text transform="matrix(6.123234e-17 1 -1 6.123234e-17 768.25 527)" class="st4 st5 st6">o</text>
			</g>
			<g>
				<text transform="matrix(6.123234e-17 1 -1 6.123234e-17 785.75 527)" class="st4 st5 st6">oe</text>
			</g>
			<g>
				<text transform="matrix(6.123234e-17 1 -1 6.123234e-17 803.25 527)" class="st4 st5 st6">oek</text>
			</g>
			<g>
				<text transform="matrix(6.123234e-17 1 -1 6.123234e-17 820.75 527)" class="st4 st5 st6">oeng</text>
			</g>
			<g>
				<text transform="matrix(6.123234e-17 1 -1 6.123234e-17 838.25 527)" class="st4 st5 st6">oet</text>
			</g>
			<g>
				<text transform="matrix(6.123234e-17 1 -1 6.123234e-17 855.75 527)" class="st4 st5 st6">oi</text>
			</g>
			<g>
				<text transform="matrix(6.123234e-17 1 -1 6.123234e-17 873.25 527)" class="st4 st5 st6">ok</text>
			</g>
			<g>
				<text transform="matrix(6.123234e-17 1 -1 6.123234e-17 890.75 527)" class="st4 st5 st6">om</text>
			</g>
			<g>
				<text transform="matrix(6.123234e-17 1 -1 6.123234e-17 908.25 527)" class="st4 st5 st6">on</text>
			</g>
			<g>
				<text transform="matrix(6.123234e-17 1 -1 6.123234e-17 925.75 527)" class="st4 st5 st6">ong</text>
			</g>
			<g>
				<text transform="matrix(6.123234e-17 1 -1 6.123234e-17 943.25 527)" class="st4 st5 st6">op</text>
			</g>
			<g>
				<text transform="matrix(6.123234e-17 1 -1 6.123234e-17 960.75 527)" class="st4 st5 st6">ot</text>
			</g>
			<g>
				<text transform="matrix(6.123234e-17 1 -1 6.123234e-17 978.25 527)" class="st4 st5 st6">ou</text>
			</g>
			<g>
				<text transform="matrix(6.123234e-17 1 -1 6.123234e-17 995.75 527)" class="st4 st5 st6">u</text>
			</g>
			<g>
				<text transform="matrix(6.123234e-17 1 -1 6.123234e-17 1013.25 527)" class="st4 st5 st6">ui</text>
			</g>
			<g>
				<text transform="matrix(6.123234e-17 1 -1 6.123234e-17 1030.75 527)" class="st4 st5 st6">uk</text>
			</g>
			<g>
				<text transform="matrix(6.123234e-17 1 -1 6.123234e-17 1048.25 527)" class="st4 st5 st6">un</text>
			</g>
			<g>
				<text transform="matrix(6.123234e-17 1 -1 6.123234e-17 1065.75 527)" class="st4 st5 st6">ung</text>
			</g>
			<g>
				<text transform="matrix(6.123234e-17 1 -1 6.123234e-17 1083.25 527)" class="st4 st5 st6">ut</text>
			</g>
			<g>
				<text transform="matrix(6.123234e-17 1 -1 6.123234e-17 1100.75 527)" class="st4 st5 st6">yu</text>
			</g>
			<g>
				<text transform="matrix(6.123234e-17 1 -1 6.123234e-17 1118.25 527)" class="st4 st5 st6">yun</text>
			</g>
			<g>
				<text transform="matrix(6.123234e-17 1 -1 6.123234e-17 1135.75 527)" class="st4 st5 st6">yut</text>
			</g>
			<g>
				<text transform="matrix(6.123234e-17 1 -1 6.123234e-17 1153.25 527)" class="st4 st5 st6">ø</text>
			</g>
		</g>
		<g>
			<g>
				<text transform="matrix(1 0 0 1 69.1797 515.45)" class="st4 st5 st6">w</text>
			</g>
			<g>
				<text transform="matrix(1 0 0 1 74.8691 497.95)" class="st4 st5 st6">j</text>
			</g>
			<g>
				<text transform="matrix(1 0 0 1 71.7168 480.45)" class="st4 st5 st6">ø</text>
			</g>
			<g>
				<text transform="matrix(1 0 0 1 65.1543 462.95)" class="st4 st5 st6">sh</text>
			</g>
			<g>
				<text transform="matrix(1 0 0 1 65.1543 445.45)" class="st4 st5 st6">ch</text>
			</g>
			<g>
				<text transform="matrix(1 0 0 1 65.1016 427.95)" class="st4 st5 st6">zh</text>
			</g>
			<g>
				<text transform="matrix(1 0 0 1 72.748 410.45)" class="st4 st5 st6">s</text>
			</g>
			<g>
				<text transform="matrix(1 0 0 1 72.748 392.95)" class="st4 st5 st6">c</text>
			</g>
			<g>
				<text transform="matrix(1 0 0 1 72.6953 375.45)" class="st4 st5 st6">z</text>
			</g>
			<g>
				<text transform="matrix(1 0 0 1 61.6445 357.95)" class="st4 st5 st6">hw</text>
			</g>
			<g>
				<text transform="matrix(1 0 0 1 62.0781 340.45)" class="st4 st5 st6">kw</text>
			</g>
			<g>
				<text transform="matrix(1 0 0 1 61.7031 322.95)" class="st4 st5 st6">gw</text>
			</g>
			<g>
				<text transform="matrix(1 0 0 1 71.4062 305.45)" class="st4 st5 st6">h</text>
			</g>
			<g>
				<text transform="matrix(1 0 0 1 63.9297 287.95)" class="st4 st5 st6">ng</text>
			</g>
			<g>
				<text transform="matrix(1 0 0 1 71.8984 270.45)" class="st4 st5 st6">k</text>
			</g>
			<g>
				<text transform="matrix(1 0 0 1 71.5234 252.95)" class="st4 st5 st6">g</text>
			</g>
			<g>
				<text transform="matrix(1 0 0 1 75.707 235.45)" class="st4 st5 st6">l</text>
			</g>
			<g>
				<text transform="matrix(1 0 0 1 71.4062 217.95)" class="st4 st5 st6">n</text>
			</g>
			<g>
				<text transform="matrix(1 0 0 1 74.2715 200.45)" class="st4 st5 st6">t</text>
			</g>
			<g>
				<text transform="matrix(1 0 0 1 71.5234 182.95)" class="st4 st5 st6">d</text>
			</g>
			<g>
				<text transform="matrix(1 0 0 1 74.7812 165.45)" class="st4 st5 st6">f</text>
			</g>
			<g>
				<text transform="matrix(1 0 0 1 67.3281 147.95)" class="st4 st5 st6">m</text>
			</g>
			<g>
				<text transform="matrix(1 0 0 1 71.5234 130.45)" class="st4 st5 st6">p</text>
			</g>
			<g>
				<text transform="matrix(1 0 0 1 71.5234 112.95)" class="st4 st5 st6">b</text>
			</g>
		</g>
	</g>
</g>
<g>
	<g transform="translate(80,100)">
		<rect x="1107" y="0" class="st0" width="69.6" height="420"/>
		<g transform="translate(0,10)">
			
				<linearGradient id="SVGID_3_" gradientUnits="userSpaceOnUse" x1="245.3" y1="609.5875" x2="245.3" y2="610.5875" gradientTransform="matrix(30 0 0 -400 -6227 244235)">
				<stop  offset="0" style="stop-color:#FCDE9C"/>
				<stop  offset="0.1667" style="stop-color:#FAA476"/>
				<stop  offset="0.3333" style="stop-color:#F0746E"/>
				<stop  offset="0.5" style="stop-color:#E34F6F"/>
				<stop  offset="0.6667" style="stop-color:#DC3977"/>
				<stop  offset="0.8333" style="stop-color:#B9257A"/>
				<stop  offset="1" style="stop-color:#7C1D6F"/>
			</linearGradient>
			<rect x="1117" y="0" class="st7" width="30" height="400"/>
		</g>
		<g transform="translate(0,10)">
		</g>
		<g transform="translate(0,-100)">
			<g>
				<text transform="matrix(1 0 0 1 1149.9 514.2)" class="st4 st5 st6">0</text>
			</g>
			<g>
				<text transform="matrix(1 0 0 1 1149.9 460.87)" class="st4 st5 st6">0.2</text>
			</g>
			<g>
				<text transform="matrix(1 0 0 1 1149.9 407.53)" class="st4 st5 st6">0.4</text>
			</g>
			<g>
				<text transform="matrix(1 0 0 1 1149.9 354.2)" class="st4 st5 st6">0.6</text>
			</g>
			<g>
				<text transform="matrix(1 0 0 1 1149.9 300.87)" class="st4 st5 st6">0.8</text>
			</g>
			<g>
				<text transform="matrix(1 0 0 1 1149.9 247.53)" class="st4 st5 st6">1</text>
			</g>
			<g>
				<text transform="matrix(1 0 0 1 1149.9 194.2)" class="st4 st5 st6">1.2</text>
			</g>
			<g>
				<text transform="matrix(1 0 0 1 1149.9 140.87)" class="st4 st5 st6">1.4</text>
			</g>
		</g>
		<g transform="translate(-80,-100)">
		</g>
		<rect x="1117" y="10" class="st3" width="30" height="400"/>
	</g>
	<g>
		<text transform="matrix(1 0 0 1 63.4 50)" class="st4 st8 st9">當代粵語</text>
	</g>
	<g>
		<text transform="matrix(1 0 0 1 608.5 581.3)" class="st4 st8 st10">韻母</text>
	</g>
	<g>
		<rect x="36" y="280" class="st3" width="12" height="33"/>
		<text transform="matrix(1 0 0 1 43.6611 279.95)" class="st4 st8 st11">聲母</text>
	</g>
</g>
</svg>
