<?xml version="1.0" encoding="utf-8"?>
<!-- Generator: Adobe Illustrator 23.0.1, SVG Export Plug-In . SVG Version: 6.00 Build 0)  -->
<svg version="1.1" id="Layer_1" xmlns="http://www.w3.org/2000/svg" xmlns:xlink="http://www.w3.org/1999/xlink" x="0px" y="0px"
	 viewBox="0 0 700 400" style="enable-background:new 0 0 700 400;" xml:space="preserve">
<style type="text/css">
	.st0{fill:#D1771E;fill-opacity:0.6;stroke:#D3D3D3;stroke-width:0.2;}
	.st1{fill:none;stroke:#000000;}
	.st2{fill:#E02F2F;}
	.st3{fill:#2A3F5F;enable-background:new    ;}
	.st4{font-family:'Verdana';}
	.st5{font-size:10px;}
	.st6{fill:#EADF1B;}
	.st7{font-family:'HanmiunLeisjo-Regular';}
	.st8{font-size:12px;glyph-orientation-vertical:0;writing-mode:tb;}
	.st9{fill:none;}
</style>
<g>
	<g transform="translate(80, 60)">
		<g>
			<path class="st0" d="M40,146.2h16l428-92.4h16V56h-16L56,148.3H40V146.2z"/>
			<path class="st0" d="M40,0h16h428h16v48.8h-16H56H40V0z"/>
			<path class="st0" d="M40,50.6h16l428,48.7h16v2.8h-16L56,53.4H40V50.6z"/>
			<path class="st0" d="M40,53.4h16l428,92.5h16v2.5h-16c0,0-428-92.5-428-92.5H40V53.4z"/>
			<path class="st0" d="M40,55.8h16l428,141.6h16v0.4h-16c0,0-428-141.6-428-141.6H40V55.8z"/>
			<path class="st0" d="M40,56.2h16l428,162.1h16v1.5h-16L56,57.7H40V56.2z"/>
			<path class="st0" d="M40,65.7h16l428-16.9h16v1.6h-16c0,0-428,16.9-428,16.9H40V65.7z"/>
			<path class="st0" d="M40,67.3h16l428,0h16V88h-16l-428,0H40V67.3z"/>
			<path class="st0" d="M40,87.9h16l428,14.1h16v1.6h-16L56,89.5H40V87.9z"/>
			<path class="st0" d="M40,89.5h16l428,58.8h16v0.8h-16c0,0-428-58.8-428-58.8H40V89.5z"/>
			<path class="st0" d="M40,90.3h16l428,107.5h16v0.9h-16L56,91.2H40V90.3z"/>
			<path class="st0" d="M40,91.2h16l428,128.6h16v0.8h-16L56,91.9H40V91.2z"/>
			<path class="st0" d="M40,99.9h16l428-49.5h16v3.4h-16L56,103.4H40V99.9z"/>
			<path class="st0" d="M40,103.4h16L484,88h16v1.3h-16L56,104.6H40V103.4z"/>
			<path class="st0" d="M40,104.6h16l428-1h16V134h-16l-428,1H40V104.6z"/>
			<path class="st0" d="M40,134.9h16l428,14.2h16v0.3h-16L56,135.2H40V134.9z"/>
			<path class="st0" d="M40,135.2h16l428,63.4h16v0.4h-16L56,135.6H40V135.2z"/>
			<path class="st0" d="M40,135.6h16l428,84.9h16v2.6h-16c0,0-428-84.9-428-84.9H40V135.6z"/>
			<path class="st0" d="M40,48.8h16l428,16.8h16v1.8h-16L56,50.6H40V48.8z"/>
			<path class="st0" d="M40,148.3h16l428-59.1h16V90h-16L56,149.1H40V148.3z"/>
			<path class="st0" d="M40,149.1h16L484,134h16v0.7h-16L56,149.8H40V149.1z"/>
			<path class="st0" d="M40,149.8h16l428-0.4h16v37.4h-16l-428,0.4H40V149.8z"/>
			<path class="st0" d="M40,187.2h16l428,11.9h16v1.2h-16L56,188.4H40V187.2z"/>
			<path class="st0" d="M40,188.4h16l428,34.8h16v2.1h-16L56,190.5H40V188.4z"/>
			<path class="st0" d="M40,198.5h16L484,56h16v0.4h-16L56,198.8H40V198.5z"/>
			<path class="st0" d="M40,198.8h16L484,90h16v0.6h-16c0,0-428,108.8-428,108.8H40V198.8z"/>
			<path class="st0" d="M40,199.5h16l428-64.8h16v0.3h-16L56,199.8H40V199.5z"/>
			<path class="st0" d="M40,199.8h16l428-13h16v1h-16l-428,13H40V199.8z"/>
			<path class="st0" d="M40,200.8h16l428-0.6h16v9h-16l-428,0.6H40V200.8z"/>
			<path class="st0" d="M40,209.8h16l428,15.5h16v1.2h-16L56,210.9H40V209.8z"/>
			<path class="st0" d="M40,218.9h16L484,56.3h16v1.3h-16c0,0-428,162.6-428,162.6H40V218.9z"/>
			<path class="st0" d="M40,220.2h16L484,90.6h16v0.7h-16c0,0-428,129.6-428,129.6H40V220.2z"/>
			<path class="st0" d="M40,220.9h16L484,135h16v2.8h-16L56,223.8H40V220.9z"/>
			<path class="st0" d="M40,223.8h16l428-35.9h16v1.6h-16L56,225.3H40V223.8z"/>
			<path class="st0" d="M40,225.3h16l428-16.2h16v1h-16L56,226.4H40V225.3z"/>
			<path class="st0" d="M40,226.4h16h428h16V260h-16H56H40V226.4z"/>
		</g>
		<g>
			<g transform="translate(40, 0)">
				<g transform="translate(0, 0)">
					<rect y="0" pointer-events="none" class="st1" width="16" height="57.7"/>
					<rect y="0" class="st2" width="16" height="57.7"/>
					<text pointer-events="none" transform="matrix(1 0 0 1 -11.3574 28.867)" class="st3 st4 st5">1</text>
				</g>
				<g transform="translate(0, 65.73405136702569)">
					<rect y="0" pointer-events="none" class="st1" width="16" height="26.2"/>
					<rect y="0" class="st2" width="16" height="26.2"/>
					<text pointer-events="none" transform="matrix(1 0 0 1 -11.3574 13.1006)" class="st3 st4 st5">2</text>
				</g>
				<g transform="translate(0, 99.93537696768848)">
					<rect y="0" pointer-events="none" class="st1" width="16" height="38.3"/>
					<rect y="0" class="st2" width="16" height="38.3"/>
					<text pointer-events="none" transform="matrix(1 0 0 1 -11.3574 19.127)" class="st3 st4 st5">3</text>
				</g>
				<g transform="translate(0, 146.18931234465617)">
					<rect y="0" pointer-events="none" class="st1" width="16" height="44.3"/>
					<rect y="0" class="st2" width="16" height="44.3"/>
					<text pointer-events="none" transform="matrix(1 0 0 1 -11.3574 22.1458)" class="st3 st4 st5">4</text>
				</g>
				<g transform="translate(0, 198.48094449047224)">
					<rect y="0" pointer-events="none" class="st1" width="16" height="12.5"/>
					<rect y="0" class="st2" width="16" height="12.5"/>
					<text pointer-events="none" transform="matrix(1 0 0 1 -11.3574 6.2313)" class="st3 st4 st5">5</text>
				</g>
				<g transform="translate(0, 218.94366197183098)">
					<rect y="0" pointer-events="none" class="st1" width="16" height="41.1"/>
					<rect y="0" class="st2" width="16" height="41.1"/>
					<text pointer-events="none" transform="matrix(1 0 0 1 -11.3574 20.5282)" class="st3 st4 st5">6</text>
				</g>
			</g>
			<g transform="translate(484, 0)">
				<g transform="translate(0, 0)">
					<rect y="0" pointer-events="none" class="st1" width="16" height="57.6"/>
					<rect y="0" class="st6" width="16" height="57.6"/>
					<text pointer-events="none" transform="matrix(1 0 0 1 21 28.7873)" class="st3 st4 st5">1</text>
				</g>
				<g transform="translate(0, 65.57456503728253)">
					<rect y="0" pointer-events="none" class="st1" width="16" height="25.7"/>
					<rect y="0" class="st6" width="16" height="25.7"/>
					<text pointer-events="none" transform="matrix(1 0 0 1 21 12.8728)" class="st3 st4 st5">2</text>
				</g>
				<g transform="translate(0, 99.32021541010772)">
					<rect y="0" pointer-events="none" class="st1" width="16" height="38.6"/>
					<rect y="0" class="st6" width="16" height="38.6"/>
					<text pointer-events="none" transform="matrix(1 0 0 1 21 19.275)" class="st3 st4 st5">3</text>
				</g>
				<g transform="translate(0, 145.87033968516985)">
					<rect y="0" pointer-events="none" class="st1" width="16" height="43.5"/>
					<rect y="0" class="st6" width="16" height="43.5"/>
					<text pointer-events="none" transform="matrix(1 0 0 1 21 21.7699)" class="st3 st4 st5">4</text>
				</g>
				<g transform="translate(0, 197.41010770505386)">
					<rect y="0" pointer-events="none" class="st1" width="16" height="12.8"/>
					<rect y="0" class="st6" width="16" height="12.8"/>
					<text pointer-events="none" transform="matrix(1 0 0 1 21 6.4136)" class="st3 st4 st5">5</text>
				</g>
				<g transform="translate(0, 218.2373653686827)">
					<rect y="0" pointer-events="none" class="st1" width="16" height="41.8"/>
					<rect y="0" class="st6" width="16" height="41.8"/>
					<text pointer-events="none" transform="matrix(1 0 0 1 21 20.8813)" class="st3 st4 st5">6</text>
				</g>
			</g>
		</g>
	</g>
</g>
<text transform="matrix(1 0 0 1 63 159.3202)" class="st7 st8">晚清聲調</text>
<rect x="625" y="159.8" class="st9" width="15" height="61"/>
<text transform="matrix(1 0 0 1 636.2812 159.8129)" class="st7 st8">當代聲調</text>
</svg>
